<svg width="18" height="18" fill="none" xmlns="http://www.w3.org/2000/svg"><path d="M4.849 10.075l6.317-6.47c.068-.07.61-.625 1.467-.925 1.196-.393 2.414-.07 3.384.924.993.994 1.286 2.219.903 3.444a4.153 4.153 0 01-.903 1.548l-6.791 6.956c-1.173 1.202-4.107 2.75-6.814 0-2.685-2.75-1.15-5.777 0-6.956L9.7 1.108a.67.67 0 01.97 0 .71.71 0 010 .994L3.405 9.59c-.113.092-2.392 2.519 0 4.968 2.324 2.38 4.602.255 4.85 0l6.792-6.979s.384-.393.564-.947c.226-.74.068-1.387-.564-2.034-1.354-1.387-2.662-.231-2.91 0l-6.318 6.448c-.226.23-.384.624 0 1.016.383.393.744.208.97 0l4.377-4.483c.271-.254.722-.254.97 0a.738.738 0 010 1.017l-4.377 4.46c-.609.601-1.85 1.086-2.91 0-1.083-1.086-.61-2.38 0-2.981z" fill="#0170D4"/></svg>