<svg width="32" height="32" fill="none" xmlns="http://www.w3.org/2000/svg"><path d="M11.733 24.518l.624-.416a.75.75 0 00-.624-.334v.75zM16 30.914l-.624.416a.75.75 0 001.248 0L16 30.914zm4.266-6.396v-.75a.75.75 0 00-.623.334l.623.416zm-9.157.416l4.267 6.396 1.248-.833-4.267-6.395-1.248.832zm5.515 6.396l4.266-6.396-1.248-.832-4.266 6.395 1.248.833zm3.642-6.062H28.8v-1.5h-8.534v1.5zm8.534 0a2.88 2.88 0 002.883-2.882h-1.5a1.38 1.38 0 01-1.383 1.382v1.5zm2.883-2.882V3.198h-1.5v19.188h1.5zm0-19.188A2.88 2.88 0 0028.8.316v1.5a1.38 1.38 0 011.383 1.382h1.5zM28.8.316H3.2v1.5h25.6v-1.5zm-25.6 0A2.88 2.88 0 00.316 3.198h1.5A1.38 1.38 0 013.2 1.816v-1.5zM.316 3.198v19.188h1.5V3.198h-1.5zm0 19.188A2.88 2.88 0 003.2 25.268v-1.5a1.38 1.38 0 01-1.384-1.382h-1.5zM3.2 25.268h8.533v-1.5H3.2v1.5zm11.733-10.652h2.133v-1.5h-2.133v1.5zm-6.4 0h2.133v-1.5H8.533v1.5zm12.8 0h2.133v-1.5h-2.133v1.5z" fill="#015AAA"/></svg>