<svg width="220" height="39" fill="none" xmlns="http://www.w3.org/2000/svg"><path fill-rule="evenodd" clip-rule="evenodd" d="M21.897 10.02c-8.648.754-15.496 3.517-19.35 7.806-6.884 7.665.77 17.237 15.94 19.934 10.181 1.81 21.16.299 28.062-3.863 2.398-1.446 4.96-4.131 5.832-6.11.606-1.376.684-1.865.576-3.61-.153-2.49-1.004-4.255-3.09-6.407-4.062-4.19-11.412-7.02-20.128-7.75-3.77-.316-4.217-.316-7.842 0zm10.511 1.938c4.535.934 9.149 3.368 11.338 5.981 1.702 2.031 2.398 3.917 2.398 6.497 0 2.94-.818 4.755-3.18 7.05-2.826 2.746-6.713 4.5-11.704 5.282-3.308.519-5.708.521-8.958.009-8.78-1.385-14.85-6.072-15.518-11.985-.585-5.179 4.043-10.215 11.407-12.412 4.381-1.306 9.23-1.45 14.217-.423zm-7.085 1.878c-1.242 2.22-8.38 15.305-9.87 18.094l-1.01 1.892h6.446l.31-.77c.17-.425.654-1.383 1.076-2.13l.767-1.36 1.13 2.13 1.13 2.13h3.36c3.295 0 3.352-.011 3.064-.571a414.634 414.634 0 00-2.598-4.693c-2.947-5.27-2.88-5.069-2.127-6.365l.616-1.062.93 1.653a700.95 700.95 0 013.471 6.344l2.542 4.691 1.96.001 1.959.002-.38-.63c-.21-.347-2.779-5.044-5.709-10.436-2.93-5.393-5.477-10.038-5.661-10.32-.302-.465-.44-.328-1.406 1.4zm44.12.165c-.146.346-2.133 5.106-4.416 10.575-4.514 10.814-5.057 11.767-6.72 11.767-.91 0-.982.06-.982.84v.84h9.16v-.84c0-.773-.074-.84-.942-.84-1.08 0-2.02-.8-2.02-1.719 0-.329.14-1.085.311-1.68l.312-1.084h9.009l.593 1.434c.326.788.614 1.765.64 2.17.042.689-.04.744-1.213.823-1.324.09-2.006.603-1.744 1.313.138.371 2.057.424 15.54.424h15.383l-.086-.77c-.075-.679-.213-.782-1.159-.862-1.727-.146-1.755-.222-1.755-4.749v-4.071l2.703-5.21c3.526-6.797 4.997-8.297 6.691-6.82.469.409 4.313 9.17 8.789 20.03l1.01 2.452h5.784l3.168-7.494c6.051-14.314 6.553-15.183 9.013-15.615.931-.163 1.099-.297 1.099-.869v-.676h-9.968v.7c0 .52.143.701.552.701.925 0 2.125.81 2.305 1.556.271 1.124-.022 2.077-2.348 7.633a1770.946 1770.946 0 00-2.59 6.209l-.399.97-.345-.83c-2.037-4.885-5.536-13.657-5.671-14.218-.203-.841.429-1.32 1.743-1.32.701 0 .826-.106.826-.7v-.7h-21.015v.668c0 .578.165.694 1.213.858.855.133 1.212.32 1.212.636 0 .48-3.898 8.4-4.409 8.957-.231.253-.861-.789-2.596-4.29-2.208-4.458-2.271-4.637-1.767-5.026.288-.222.924-.403 1.415-.403.772 0 .891-.094.891-.704v-.704l-8.419.074-8.42.073-.083.611c-.073.534.08.636 1.213.807 2.623.397 2.774.578 6.524 7.821l2.463 4.757-.074 4.348-.074 4.349-2.18.08c-1.775.066-2.289-.012-2.763-.42-.484-.416-4.922-10.208-9.148-20.181l-.979-2.312h-2.506c-2.342 0-2.524.042-2.772.63zm68.054 8.962c-5.895 14.07-5.301 13-7.429 13.365-.783.134-.958.293-1.029.935l-.086.774 4.666-.076 4.666-.077v-.696c0-.585-.159-.722-.996-.864-.548-.093-1.185-.33-1.415-.53-.475-.409-.557-2.116-.155-3.215l.262-.719h8.934l.678 1.54c.373.846.639 1.823.591 2.17-.073.538-.289.654-1.433.773-1.23.128-1.355.207-1.432.91l-.086.77h40.448l.002-1.33c0-.732.079-2.749.175-4.482l.175-3.152-.782.002c-.688.002-.895.225-1.725 1.852-.519 1.017-1.359 2.23-1.867 2.695-2.055 1.88-5.992 3.154-9.147 2.962l-1.416-.087 7.011-10.226c3.855-5.624 7.217-10.619 7.469-11.099.974-1.854 1.41-1.788-11.741-1.788h-11.862v8.685h.623c.456 0 .754-.283 1.105-1.05 1.358-2.964 3.509-4.93 6.336-5.789 1.485-.452 5.146-.62 5.127-.235-.006.116-3.196 4.938-7.09 10.716-6.477 9.612-7.149 10.513-7.905 10.591-.565.059-1.047-.119-1.523-.56-.454-.42-2.334-4.409-5.389-11.432l-4.692-10.786-2.524-.072-2.523-.072-4.021 9.597zm-66.818 2.514l1.697 4.002-1.733.083a44.33 44.33 0 01-3.459 0l-1.726-.083 1.63-4.138c.898-2.276 1.69-4.077 1.763-4.002.072.075.895 1.938 1.828 4.138zm71.743-.198c.91 2.158 1.655 4.018 1.655 4.132 0 .115-1.515.208-3.367.208-1.853 0-3.368-.107-3.368-.238 0-.204.611-1.767 2.854-7.299.212-.524.427-.902.478-.84.05.062.837 1.878 1.748 4.037z" fill="#015AAA"/><circle cx="51.549" cy="11.967" r="3.307" stroke="#015AAA" stroke-width=".75"/><path d="M50.303 9.881h1.3c.294 0 .543.045.747.135.204.09.36.223.466.4a1.2 1.2 0 01.162.644 1.1 1.1 0 01-.11.493 1.05 1.05 0 01-.314.378 1.378 1.378 0 01-.485.23l-.146.056h-1.221l-.005-.424h.922a.996.996 0 00.466-.097.683.683 0 00.28-.267.739.739 0 00.095-.37.843.843 0 00-.089-.396.595.595 0 00-.28-.261 1.093 1.093 0 00-.488-.095h-.78v3.5h-.52V9.882zm2.295 3.927l-.955-1.78.542-.003.968 1.75v.033h-.555zm140.984-8.896h3.25c.737 0 1.359.112 1.867.337.513.225.901.557 1.167.998.269.436.404.973.404 1.61 0 .45-.092.862-.276 1.235-.18.368-.441.683-.782.944a3.459 3.459 0 01-1.214.573l-.364.141h-3.054l-.014-1.058h2.306c.468 0 .856-.081 1.166-.243a1.71 1.71 0 00.702-.667 1.85 1.85 0 00.236-.924 2.11 2.11 0 00-.223-.991 1.484 1.484 0 00-.701-.654c-.315-.157-.721-.236-1.22-.236h-1.949v8.751h-1.301V4.912zm5.737 9.816l-2.386-4.45 1.355-.006 2.42 4.375v.081h-1.389zm8.387-9.816h1.295v6.64c0 .738-.164 1.351-.492 1.841a3.07 3.07 0 01-1.308 1.106 4.241 4.241 0 01-1.76.364 4.358 4.358 0 01-1.807-.364 2.958 2.958 0 01-1.274-1.106c-.31-.49-.465-1.103-.465-1.84V4.912h1.288v6.64c0 .513.094.935.283 1.268.189.333.451.58.789.742a2.74 2.74 0 001.186.242c.454 0 .85-.08 1.187-.242.341-.162.606-.41.795-.742.189-.333.283-.755.283-1.268v-6.64zm8.569 7.335c0-.23-.035-.431-.107-.607a1.163 1.163 0 00-.364-.485 2.857 2.857 0 00-.715-.412 9.954 9.954 0 00-1.146-.397 10.51 10.51 0 01-1.315-.479 4.574 4.574 0 01-1.004-.613 2.414 2.414 0 01-.641-.79 2.25 2.25 0 01-.222-1.017c0-.382.078-.735.236-1.059.157-.323.382-.604.674-.843a3.259 3.259 0 011.058-.566 4.355 4.355 0 011.369-.202c.737 0 1.362.141 1.874.425.517.278.91.645 1.18 1.099.27.449.404.93.404 1.442h-1.294c0-.368-.079-.694-.236-.977a1.625 1.625 0 00-.715-.674c-.319-.167-.723-.25-1.213-.25-.463 0-.845.07-1.146.21a1.512 1.512 0 00-.675.565c-.143.239-.215.51-.215.816 0 .207.042.396.128.567.09.166.227.32.411.465.189.144.427.276.715.397.292.122.64.239 1.045.351a9.14 9.14 0 011.443.526c.404.193.737.411.997.654.266.238.461.51.587.816.13.3.195.642.195 1.024 0 .4-.08.762-.242 1.086a2.38 2.38 0 01-.695.83 3.382 3.382 0 01-1.085.532 5.03 5.03 0 01-1.403.182 4.86 4.86 0 01-1.341-.189 3.991 3.991 0 01-1.193-.566 2.962 2.962 0 01-.857-.93c-.211-.374-.317-.805-.317-1.295h1.295c0 .337.065.627.195.87.131.238.308.436.533.593.229.157.488.274.775.35.292.072.596.108.91.108.454 0 .839-.063 1.153-.188.315-.126.553-.306.715-.54.166-.234.249-.51.249-.83z" fill="#015AAA"/><path d="M219.5 9.665c0 2.439-1.555 4.718-4.217 6.413-2.657 1.69-6.358 2.753-10.472 2.753-4.113 0-7.814-1.063-10.471-2.753-2.663-1.695-4.217-3.974-4.217-6.413 0-2.438 1.554-4.718 4.217-6.412C196.997 1.563 200.698.5 204.811.5c4.114 0 7.815 1.062 10.472 2.753 2.662 1.694 4.217 3.974 4.217 6.412z" stroke="#015AAA"/></svg>