<svg width="498" height="359" fill="none" xmlns="http://www.w3.org/2000/svg"><path fill-rule="evenodd" clip-rule="evenodd" d="M406.993 47.29c-3.356.99-3.365.995-3.78 2.148-.494 1.372-.567 3.893-.145 5.006.453 1.196-1.991 3.156-5.786 4.64-3.081 1.205-2.701.905-9.942 7.856-2 1.921-4.333 3.807-5.554 4.492-3.04 1.704-6.373 5.772-8.523 10.402-1.075 2.315-1.016 3.55.295 6.107 1.496 2.92 1.651 3.516 1.064 4.105-.269.269-.692.489-.942.489-.872 0-5.741 5.382-6.63 7.328-.808 1.769-.829 1.957-.452 3.959.621 3.299-.069 5.697-1.639 5.697-.455 0-1.849-.437-3.098-.971-2.827-1.209-4.268-1.231-7.955-.125-2.666.8-2.945.966-3.74 2.228-.473.75-1.829 2.308-3.013 3.463-2.151 2.098-3.038 3.541-3.04 4.948-.002 1.095-1.174 2.836-2.164 3.213-1.138.434-2.486-.031-4.315-1.49-2.121-1.691-5.218-1.434-8.724.725-1.045.644-2.456 1.449-3.135 1.789-3.115 1.561-4.735 6.741-3.198 10.225.378.855.686 1.749.686 1.987 0 .614-2.219 2.702-3.654 3.438-2.3 1.179-4.711 4.429-6.108 8.235-.376 1.023-.638 1.009-3.184-.181-1.819-.849-3.161-2.431-4.472-5.274-1.675-3.632-6.948-7.738-9.218-7.178-2.053.507-4.011 2.744-4.82 5.507-.309 1.052-1.043 2.271-2.067 3.429l-1.589 1.797h-7.505c-8.967 0-8.805-.06-10.267 3.785-.505 1.331-1.158 2.909-1.449 3.507-.972 1.992-3.571 2.646-5.094 1.281-.776-.694-.795-.788-.346-1.714 1.078-2.22 1.977-3.397 4.535-5.937 3.032-3.01 4.945-5.697 5.592-7.851l.438-1.46-1.834-3.738c-2.438-4.968-3.055-5.49-6.206-5.251-1.832.139-3.015.479-5.25 1.511-3.477 1.606-3.243 1.597-5.062.205-1.826-1.398-3.88-2.466-4.741-2.466-1.789 0-2.54 2.832-1.464 5.526.612 1.534.511 1.757-1.67 3.716-1.898 1.704-3.102 2.102-7.567 2.503-5.166.463-10.253 2.572-13.212 5.477-3.922 3.851-4.681 5.549-3.618 8.099.62 1.488.338 1.776-1.745 1.784-1.165.004-1.585-.185-2.536-1.138-1.279-1.282-1.25-1.271-2.119-.805-.847.455-3.887 6.874-3.887 8.209 0 3.269 3.257 9.636 5.774 11.29l.806.53-1.577 1.411c-.868.776-1.675 1.411-1.793 1.411-.293 0-3.307-4.13-4.053-5.552-.33-.629-1.044-2.453-1.589-4.053-.675-1.986-1.247-3.1-1.803-3.51-1.054-.778-4.387-1.64-5.857-1.516l-1.148.097-.093 2.822-.094 2.822-1.502.379c-.94.238-1.866.77-2.476 1.424-1.869 2.004-1.887 2.076-1.907 7.549-.021 5.769-.049 5.681 2.728 8.465 1.903 1.908 1.935 2.873.112 3.476-1.729.573-3.604 2.096-4.244 3.45-1.813 3.829-5.968 5.813-7.838 3.742-.752-.832.999-2.529 4.206-4.076 3.152-1.52 3.205-1.673 2.727-7.928-.475-6.211-.473-6.322.172-11.431.616-4.881.941-5.856 2.616-7.859 1.932-2.307 3.455-7.946 2.387-8.834-.603-.502-5.273-2.003-6.231-2.003-1.928 0-4.292 2.026-6.718 5.759-.743 1.144-1.461 2.079-1.596 2.079-.443 0-1.848 2.422-2.367 4.083-.822 2.631-.914 3.686-.525 6.046.497 3.017-1.007 9.378-2.117 8.951-.557-.214-3.021-3.35-4.223-5.373-.476-.802-1.465-2.12-2.199-2.928-.733-.809-1.988-2.462-2.788-3.675-1.724-2.611-2.485-2.826-3.925-1.107-1.659 1.98-4.477 3.583-6.564 3.734-2.199.158-5.318-.812-6.536-2.033l-.788-.79.882-1.05c.573-.683.846-1.347.782-1.902-.096-.829-.17-.855-2.658-.949-1.437-.054-3.653.127-5.05.412-1.384.283-3.793.482-5.422.448-3.053-.064-5.605.83-8.723 3.056-.835.596-1.034.622-1.77.227-.964-.518-2.376-2.474-2.376-3.294 0-.508 2.066-2.222 2.677-2.222.628 0 4.801-2.791 5.149-3.443.901-1.688-1.446-5.383-3.411-5.369-1.349.01-3.419 1.015-4.443 2.156-2.581 2.878-5.185 7.626-5.185 9.452 0 1.708-1.977 1.76-4.572.12-2.556-1.616-5.02-2.047-10.189-1.78l-4.512.233-1.359-1.425c-.867-.908-1.56-2.059-1.912-3.174l-.553-1.748 2.117-4.235 2.116-4.234 1.643 2.722c3.342 5.539 5.208 7.454 7.263 7.457.986.001 3.768-1.18 3.768-1.601 0-.13.572-.56 1.271-.953 1.075-.606 1.324-.956 1.61-2.265.883-4.044.661-10.782-.47-14.212-.49-1.488-.482-1.613.171-2.776 2.971-5.292 3.763-8.676 2.26-9.662-1.384-.908-4.528-1.502-8.315-1.572l-3.716-.069-1.003 1.219c-.551.671-2.007 2.023-3.234 3.005-2.715 2.171-3.586 3-4.271 4.064-.29.449-2.12 2.516-4.067 4.593-6.58 7.017-12.129 14.765-13.12 18.321-.884 3.17-1.846 3.702-8.486 4.69-3.736.557-3.978.668-6.36 2.934-3.49 3.321-3.737 3.431-7.669 3.431h-3.498l-2.073 1.521c-1.14.837-2.784 2.16-3.654 2.94-1.108.992-1.871 1.418-2.542 1.418-1.262 0-1.724 1.107-2.254 5.399-.306 2.475-.316 4.072-.043 6.657.45 4.268.443 4.287-3.96 10.505-.583.822-1.321 2.329-1.641 3.348-.474 1.51-.713 1.853-1.293 1.853-.392 0-1.055.241-1.475.536-.42.295-1.369.715-2.109.933-2.435.716-1.463 2.933 2.401 5.479 1.084.713 1.146.855 1.243 2.862.144 2.963-1.101 10.225-2.083 12.15-1.43 2.8-.804 4.292 2.65 6.321 2.489 1.462 4.374 4.718 4.379 7.561 0 .581.175 1.706.387 2.5l.385 1.443-1.768 2.046c-2.114 2.446-3.774 3.296-8.33 4.264-3.616.769-4.266 1.141-6.43 3.68-1.857 2.179-2.098 2.265-4.768 1.707-2.469-.517-3.145-.272-4.642 1.676-1.26 1.639-1.173 3.19.443 8.01 2.006 5.986 4.39 10.614 7.53 14.622 6.968 8.896 8.225 11.397 7.889 15.703-.21 2.69-.174 2.945.636 4.396.472.847.947 2.097 1.056 2.778.375 2.355.88 2.585 5.666 2.585 4.144 0 4.235-.016 5.207-.898 1.138-1.034 1.937-4.081 1.949-7.431.005-1.393.2-2.278.677-3.061.368-.606.965-1.894 1.327-2.862.726-1.948 2.625-3.691 4.785-4.394.658-.214 2.27-.883 3.582-1.486 1.311-.603 2.727-1.183 3.146-1.289 2.17-.546 2.936-3.295 1.832-6.576-.878-2.607-.86-3.417.137-6.584.857-2.719 2.154-4.734 4.89-7.596 1.979-2.07 2.382-2.02 2.993.37.494 1.929 3.147 1.753 6.523-.433 1.908-1.234 6.303-2.369 7.856-2.027 1.164.256 2.67 1.71 4.217 4.073 5.764 8.804 9.098 11.306 16.576 12.439 3.151.478 3.358.584 5.971 3.088 2.14 2.05 3.174 2.566 5.885 2.932 2.223.299 3.231-1.337 3.235-5.248l.002-1.671 4.552-4.617c5.283-5.359 4.255-5.023 11.532-3.762 4.312.747 5.4.824 8.677.61 4.726-.309 6.053-.284 9.285.176 3.563.506 4.13.775 4.986 2.368 2.885 5.37 12.754 10.538 21.532 11.276 3.966.333 4.157.713 5.74 11.408 1.36 9.181 1.188 8.999 8.744 9.279 9.738.36 14.717 2.545 15.388 6.752l.221 1.384 3.891 1.953c3.499 1.756 4.093 1.952 5.903 1.95 4.951-.006 11.637-2.639 14.832-5.842 1.574-1.578 1.947-1.796 3.005-1.754 1.377.055 6.158 1.783 10.142 3.665 4.903 2.317 4.933 2.318 12.64.615 3.428-.757 3.515-2.198.413-6.869-1.439-2.166-1.446-2.193-.901-3.118 1.443-2.449 6.01-3.377 11.793-2.396 3.89.661 4.222.836 4.069 2.145-.303 2.603 3.107 2.164 10.828-1.395 3.898-1.796 5.166-1.704 9.083.663 3.822 2.31 5.627 2.969 8.208 2.996 3.55.037 5.223-.951 10.252-6.057 5.403-5.485 5.983-5.766 12.786-6.18 3.985-.243 5.404-.464 7.099-1.106 1.164-.44 2.511-.884 2.992-.985 2.014-.424 2.365-1.647 2.277-7.938-.087-6.261-.606-8.33-2.457-9.789-.472-.373-.858-.929-.858-1.238 0-.436 1.885-3.063 2.928-4.081.092-.09.754-.898 1.47-1.796s1.523-1.905 1.792-2.238c1.489-1.84 4.024-3.462 6.919-4.429 5.385-1.799 6.341-1.443 9.948 3.696 8.232 11.731 11.54 13.554 16.655 9.176 2.071-1.771 3.645-2.266 5.727-1.798 2.045.459 4.041 1.444 5.268 2.598 2.503 2.355 4.483 2.811 7.85 1.809 1.438-.428 2.046-.917 4.539-3.645 5.777-6.323 6.937-6.287 7.48.234.227 2.737-.777 9.856-1.69 11.984-.435 1.015-2.635 2.819-5.67 4.651-1.93 1.165-1.959 1.798-.239 5.319.81 1.66 1.708 3.69 1.996 4.512 1.427 4.081 3.813 5.831 7.602 5.578.506-.034 1.083-.588 1.838-1.764 1.328-2.069 2.193-2.887 4.036-3.815.769-.387 1.965-1.248 2.657-1.914.692-.667 1.639-1.476 2.104-1.799.837-.581.845-.629.828-4.736-.009-2.282-.215-5.251-.458-6.598-.338-1.876-.364-3.139-.112-5.39.416-3.708.148-7.424-.893-12.413-1.091-5.222-1.293-8.211-.819-12.106.533-4.38.384-4.729-5.118-11.994a721.552 721.552 0 01-6.263-8.431c-2.942-4.029-6.19-7.434-8.79-9.213-.443-.303-1.411-.551-2.151-.551-2.171 0-3.239.994-5.264 4.899-2.217 4.274-1.958 4.054-3.683 3.138-.8-.424-1.968-.88-2.595-1.013-1.484-.314-1.853-.639-2.757-2.431-1.933-3.831-2.073-4.929-1.889-14.882.166-9.04.158-9.186-.688-12.682-1.378-5.696-1.159-6.474 3.053-10.834 1.215-1.258 3.12-3.533 4.235-5.057 1.115-1.524 2.988-3.802 4.163-5.063 1.176-1.26 2.706-3.195 3.401-4.299 1.723-2.737 2.039-2.771 5.659-.604 1.457.872 1.927.509 3.487-2.685.77-1.578 2.017-3.841 2.771-5.028 1.963-3.089 1.72-5.154-.679-5.777-.657-.17-1.406-.762-2.021-1.597-.539-.729-1.712-2.306-2.608-3.505-3.671-4.911-3.389-4.303-3.629-7.821l-.219-3.222 1.304.221c.976.165 1.79.033 3.228-.522 1.269-.491 2.691-.756 4.184-.782 3.048-.052 3.247-.411 1.726-3.127-.642-1.146-2.132-3.245-3.311-4.662-1.178-1.417-2.142-2.696-2.142-2.842 0-.414 4.024-4.21 4.467-4.213 1.771-.013 5.054 6.699 4.978 10.178-.104 4.802.025 5.34 2.602 10.886 1.514 3.258 1.526 3.358 1.163 9.715l-.256 4.488 3.761 3.84c2.069 2.112 4.391 4.575 5.161 5.473 7.142 8.331 16.714 15.515 20.673 15.515 3.305 0 5.405-1.364 5.862-3.809.273-1.459-.432-3.017-2.765-6.106-1.95-2.584-1.958-2.638-.688-4.893 2.104-3.738 1.545-5.851-2.084-7.886-3.454-1.936-4.456-3.678-3.29-5.722 1.196-2.099.473-3.51-2.932-5.722-.896-.582-2.518-1.855-3.605-2.828-1.086-.974-3.494-2.791-5.351-4.038-5.002-3.36-7.604-7.067-8.682-12.366-.472-2.318-.471-2.692.009-4.407.683-2.44.661-3.581-.104-5.527-.709-1.804-.429-2.632 1.622-4.796.51-.539 1.162-1.494 1.447-2.123.286-.629.878-1.64 1.316-2.247 1.02-1.414.936-1.769-1.673-7.062-2.138-4.338-3.688-9.32-4.319-13.881-.326-2.357-.105-3.062 1.67-5.326 1.76-2.245 1.609-3.55-.73-6.35-1.089-1.304-2.238-2.369-2.556-2.369-.317 0-1.676.723-3.019 1.608-2.79 1.836-6.412 3.394-7.524 3.236-.674-.096-.818-.424-1.334-3.047-.847-4.302-1.441-5.291-4.39-7.319-1.388-.954-1.336-1.329.326-2.382.762-.483 2.704-1.85 4.317-3.04 1.613-1.188 3.462-2.438 4.11-2.778 2.233-1.17 3.111-2.19 4.186-4.866 1.656-4.118 1.446-4.401-2.804-3.783-2.056.3-2.485-.186-3.036-3.432-.643-3.791-.661-3.84-1.579-4.192-1.628-.624-2.175-.658-3.646-.224zm-35.226 11.682c-.649.585-1.368 1.579-1.597 2.207-.229.63-.835 1.896-1.345 2.816-1.385 2.497-1.269 3.003 1.031 4.489 2.218 1.432 2.686 1.339 4.362-.865 1.833-2.408 2.174-4.15 1.225-6.255-.329-.73-.735-1.769-.902-2.308-.418-1.346-1.343-1.374-2.774-.084zm-136.282 42.683c-.897.938-1.799 3.734-1.81 5.609-.003.466-.299 1.113-.657 1.438-1.373 1.246-.394 4.999 1.889 7.243 2.337 2.298 4.491 3.178 8.129 3.319 1.657.064 3.014.23 3.014.369 0 .221-.61.842-3.299 3.359-1.24 1.16-.559 1.846 2.266 2.285 1.598.248 2.654.257 3.388.029 1.173-.365 5.297-3.288 5.596-3.966.325-.741-1.118-5.727-1.873-6.468-1.067-1.047-4.866-2.414-6.709-2.414-2.162 0-2.546-.773-3.461-6.973-.189-1.281-.525-1.688-3.025-3.665-1.728-1.367-2.274-1.393-3.448-.165zm85.148.671c-2.15 1.139-3.619 3.109-3.366 4.513.537 2.983 1.05 2.971 5.701-.133 4.445-2.967 4.902-3.64 3.065-4.514-1.449-.689-3.965-.627-5.4.134zm-12.359 4.745c-.913.49-1.6 1.682-1.615 2.805-.009.703-.236.913-1.342 1.246-1.113.334-1.436.636-1.968 1.843-.351.795-.925 1.599-1.276 1.787-.902.484-.792 1.528.269 2.549 4.199 4.043 4.871 4.437 7.163 4.2 2.305-.239 3.087-1.047 5.11-5.286 2.927-6.134 2.266-8.052-3.125-9.072-1.969-.373-2.628-.388-3.216-.072zm9.206 12.001c-2.556.822-.377 4.818 2.628 4.818.855 0 2.829-1.767 2.829-2.533 0-2.04-2.702-3.172-5.457-2.285zm-122.863 7.766c-2.026 1.335-5.266 2.001-8.589 1.765-5.758-.408-12.794 2.674-14.531 6.365-.46.978-1.166 1.482-4.616 3.295-4.71 2.476-7.998 4.661-8.525 5.666-.203.386-.704 1.106-1.114 1.601-1.194 1.439-1.275 3.215-.317 6.939.82 3.186.886 3.309 2.71 4.978 2.31 2.115 2.762 2.135 4 .178 1.2-1.898 1.613-3.33 1.615-5.6.002-1.569.16-1.966 1.53-3.836 1.455-1.986 2.296-2.709 5.064-4.352.669-.397 1.514-1.142 1.879-1.656.727-1.024 1.694-1.414 4.887-1.971 2.534-.442 3.841-1.193 5.402-3.102.986-1.207 1.4-1.46 2.687-1.635 2.884-.394 8.994-2.124 10.04-2.843 1.378-.946 3.373-4.011 3.373-5.181 0-1.859-3.079-2.202-5.495-.611zm259.74 57.726c-.601.395-2.374 4.18-2.587 5.523-.397 2.497 4.463 7.109 5.581 5.296.381-.618.447-6.587.087-7.963-.627-2.401-1.932-3.61-3.081-2.856zm2.548 13.207c-.786.787-.12 5.175 1.058 6.978 1.324 2.025 3.481-.244 3.566-3.753.032-1.336-.072-1.528-1.376-2.531-1.464-1.128-2.578-1.366-3.248-.694zm2.431 9.625c-1.132.595-1.155 2.009-.062 3.879 1.538 2.631 2.93 2.098 2.93-1.12 0-2.704-1.05-3.714-2.868-2.759zm-53.44 5.358c-1.066.841-1.142 2.384-.206 4.222.358.705.651 1.863.651 2.575 0 2.275 2.44 5.087 8.627 9.946 5.397 4.237 7.163 6.099 10.151 10.702.513.79 1.2 1.731 1.526 2.09.327.36 1.6 2.05 2.829 3.756 2.765 3.839 7.229 8.493 8.146 8.493.63 0 .662-.166.576-3.022l-.09-3.021 2.118-.163c3.028-.234 3.529-.743 2.413-2.451-.539-.825-4.488-4.146-7.027-5.911-1.266-.88-4.183-4.621-4.183-5.366 0-.144.44-.678.978-1.186.537-.509.977-1.244.977-1.633 0-.832-2.12-2.517-3.882-3.085-2.277-.734-4.049-2.423-6.86-6.536-2.913-4.264-5.63-6.167-8.801-6.167-.934 0-2.35-.937-4.16-2.751-1.354-1.358-2.496-1.506-3.783-.492zm53.371 3.727c-2.643 2.81-.876 6.065 2.52 4.642 2.5-1.047 2.751-2.05 1.065-4.263-1.403-1.841-2.136-1.919-3.585-.379zm-.001 8.026c-.418.463-.648 1.326-.74 2.777-.161 2.529.555 3.722 3.023 5.043 1.994 1.068 2.461.572 2.451-2.593-.015-4.342-2.778-7.393-4.734-5.227zm.751 10.681c-1.069.664-1.388 1.973-1.08 4.44.233 1.871-.248 2.672-2.537 4.228-.673.457-.864.855-.866 1.797-.001.665-.159 1.777-.351 2.472-.574 2.07-.239 2.619 2.495 4.097 2.619 1.417 3.425 1.599 3.999.906.562-.679.83-3.956.419-5.137-.281-.808-.259-1.508.096-3.049 1.869-8.106 1.054-11.761-2.175-9.754zm-5.555 18.576c-.126.126-.229.642-.229 1.146 0 .684-.243 1.043-.956 1.413-.978.507-1.505.537-9.144.525-5.27-.009-5.538.053-5.538 1.283 0 1.527.495 2.416 2.73 4.904 3.412 3.799 3.651 4.721 1.818 7.033-.59.744-.969 1.612-.976 2.234-.006.559-.221 1.384-.477 1.833-.78 1.367-.569 1.932 1.547 4.145 3.575 3.738 8.599 5.524 9.16 3.257.096-.389.201-2.029.234-3.646.032-1.617.178-3.263.325-3.658.31-.837 1.873-1.731 3.026-1.731 1.292 0 1.8-.321 2.992-1.885 1.358-1.784 1.403-2.677.288-5.791-.45-1.257-.901-2.535-1.002-2.84-.118-.357.222-.973.959-1.733 1.365-1.409 1.698-2.497 1.13-3.69-.646-1.357-5.177-3.511-5.887-2.799z" fill="#F0F2F6"/><path d="M205.5 208c22.333-18.167 86.1-54.2 162.5-53" stroke="#015AAA" stroke-linecap="round" stroke-linejoin="round" stroke-dasharray="4 4"/><path d="M183.4 205.591a3.6 3.6 0 017.2 0 3.6 3.6 0 01-7.2 0z" fill="#015AAA"/><path fill-rule="evenodd" clip-rule="evenodd" d="M171.4 205.591c0-8.61 6.987-15.591 15.6-15.591 8.614 0 15.6 6.981 15.6 15.591 0 6.417-3.211 11.502-6.651 14.939-1.724 1.723-3.53 3.059-5.077 3.97a15.45 15.45 0 01-2.123 1.062c-.593.234-1.216.416-1.749.416-.533 0-1.155-.182-1.748-.416a15.45 15.45 0 01-2.123-1.062c-1.547-.911-3.353-2.247-5.077-3.97-3.44-3.437-6.652-8.522-6.652-14.939zm15.6-5.997a6 6 0 00-6 5.997 6 6 0 0012 0 6 6 0 00-6-5.997z" fill="#015AAA"/><path d="M256.335 148.167c0 5.5-7.334 11-7.334 11s-7.333-5.5-7.333-11a7.335 7.335 0 0112.519-5.186 7.335 7.335 0 012.148 5.186v0z" stroke="#015AAA" stroke-width="2" stroke-linecap="round" stroke-linejoin="round"/><path d="M249 150.917a2.75 2.75 0 100-5.5 2.75 2.75 0 000 5.5z" stroke="#015AAA" stroke-width="2" stroke-linecap="round" stroke-linejoin="round"/><path d="M166.5 208c-16.833-15.333-32.5-22.5-74.5-17m112 23.5c33.333-22.833 89.2-50.801 154 23.999M190.5 228.5c9.656 11.814 15.5 10 20 41m-37-49.5c-13.5 4.5-21 10.5-30 27.5m55-25.5c15.899-2.971 37.658-7.339 51.5 3" stroke="#015AAA" stroke-linecap="round" stroke-linejoin="round" stroke-dasharray="4 4"/><path d="M93.335 179.167c0 5.5-7.334 11-7.334 11s-7.333-5.5-7.333-11a7.334 7.334 0 1114.667 0v0z" stroke="#015AAA" stroke-width="2" stroke-linecap="round" stroke-linejoin="round"/><path d="M86 181.917a2.75 2.75 0 10-.001-5.501 2.75 2.75 0 00.001 5.501z" stroke="#015AAA" stroke-width="2" stroke-linecap="round" stroke-linejoin="round"/><path d="M246.5 162.5c-27.5 20.5-20 18.5-41 39" stroke="#015AAA" stroke-linecap="round" stroke-linejoin="round" stroke-dasharray="4 4"/><path d="M141.335 245.167c0 5.5-7.334 11-7.334 11s-7.333-5.5-7.333-11a7.335 7.335 0 0112.519-5.186 7.335 7.335 0 012.148 5.186v0z" stroke="#015AAA" stroke-width="2" stroke-linecap="round" stroke-linejoin="round"/><path d="M134 247.917a2.75 2.75 0 100-5.5 2.75 2.75 0 000 5.5zm-51.665-18.75c0 5.5-7.334 11-7.334 11s-7.333-5.5-7.333-11a7.334 7.334 0 1114.667 0v0z" stroke="#015AAA" stroke-width="2" stroke-linecap="round" stroke-linejoin="round"/><path d="M75 231.917a2.75 2.75 0 10-.001-5.501 2.75 2.75 0 00.001 5.501zm300.335 4.25c0 5.5-7.334 11-7.334 11s-7.333-5.5-7.333-11a7.335 7.335 0 0112.519-5.186 7.335 7.335 0 012.148 5.186v0z" stroke="#015AAA" stroke-width="2" stroke-linecap="round" stroke-linejoin="round"/><path d="M368 238.917a2.75 2.75 0 100-5.5 2.75 2.75 0 000 5.5zm8.335-98.75c0 5.5-7.334 11-7.334 11s-7.333-5.5-7.333-11a7.335 7.335 0 0112.519-5.186 7.335 7.335 0 012.148 5.186v0z" stroke="#015AAA" stroke-width="2" stroke-linecap="round" stroke-linejoin="round"/><path d="M369 142.917a2.75 2.75 0 100-5.5 2.75 2.75 0 000 5.5zm-106.665 72.25c0 5.5-7.334 11-7.334 11s-7.333-5.5-7.333-11a7.335 7.335 0 0112.519-5.186 7.335 7.335 0 012.148 5.186v0z" stroke="#015AAA" stroke-width="2" stroke-linecap="round" stroke-linejoin="round"/><path d="M255 217.917a2.75 2.75 0 100-5.5 2.75 2.75 0 000 5.5z" stroke="#015AAA" stroke-width="2" stroke-linecap="round" stroke-linejoin="round"/><ellipse cx="212" cy="280" rx="7" ry="9" fill="#F0F2F6"/><path d="M219.335 279.167c0 5.5-7.334 11-7.334 11s-7.333-5.5-7.333-11a7.335 7.335 0 0112.519-5.186 7.335 7.335 0 012.148 5.186v0z" stroke="#015AAA" stroke-width="2" stroke-linecap="round" stroke-linejoin="round"/><path d="M212 281.917a2.75 2.75 0 100-5.5 2.75 2.75 0 000 5.5z" stroke="#015AAA" stroke-width="2" stroke-linecap="round" stroke-linejoin="round"/><path d="M83.5 235.5c16.833-10.334 57.1-28.6 83.5-19" stroke="#015AAA" stroke-linecap="round" stroke-linejoin="round" stroke-dasharray="4 4"/></svg>