<svg width="44" height="44" fill="none" xmlns="http://www.w3.org/2000/svg"><path d="M1.467 22l-.354-.353a.5.5 0 000 .707L1.467 22zM22 42.533l-.353.354a.5.5 0 00.707 0L22 42.533zM42.533 22l.354.354a.5.5 0 00.146-.354h-.5zM22 1.467v-.5a.5.5 0 00-.353.146l.353.354zM1.113 22.354l20.534 20.533.707-.707L1.82 21.647l-.707.707zm21.24 20.533l20.534-20.533-.707-.707L21.647 42.18l.707.707zM43.034 22V4.4h-1V22h1zM39.6.967H22v1h17.6v-1zm-17.953.146L1.113 21.647l.707.707L22.354 1.82l-.707-.707zM43.033 4.4A3.433 3.433 0 0039.6.967v1A2.433 2.433 0 0142.033 4.4h1zM30.8 15.633a2.433 2.433 0 01-2.433-2.433h-1a3.433 3.433 0 003.433 3.434v-1zm2.433-2.433a2.433 2.433 0 01-2.433 2.434v1a3.433 3.433 0 003.433-3.434h-1zM30.8 10.767a2.433 2.433 0 012.433 2.433h1A3.433 3.433 0 0030.8 9.767v1zm0-1a3.433 3.433 0 00-3.433 3.433h1a2.433 2.433 0 012.433-2.433v-1z" fill="#0170D4"/></svg>