<svg width="44" height="44" fill="none" xmlns="http://www.w3.org/2000/svg"><path d="M22 22h-.5a.5.5 0 00.147.354L22 22zm0 20.033C10.936 42.033 1.967 33.064 1.967 22h-1c0 11.617 9.417 21.033 21.033 21.033v-1zM42.033 22c0 11.064-8.969 20.033-20.033 20.033v1c11.617 0 21.033-9.416 21.033-21.033h-1zM22 1.967c11.064 0 20.033 8.969 20.033 20.033h1C43.033 10.384 33.617.967 22 .967v1zm0-1C10.384.967.967 10.384.967 22h1C1.967 10.936 10.936 1.967 22 1.967v-1zM21.5 8.8V22h1V8.8h-1zm.147 13.554l8.8 8.8.707-.707-8.8-8.8-.707.707z" fill="#0170D4"/></svg>