<svg width="306" height="80" fill="none" xmlns="http://www.w3.org/2000/svg"><path fill-rule="evenodd" clip-rule="evenodd" d="M12.897 15h36.25v34.616L36.8 64.996H0v-34.54C4.302 25.309 8.617 20.173 12.897 15zm-1.76 21.108c0 4.202.143 8.455-.705 12.596-.44 1.839-1.765 3.736-3.714 4.092v4.83c1.84 0 3.729-.457 5.225-1.574 1.56-1.134 2.542-2.91 3.017-4.758.857-3.324.968-6.782 1.09-10.197 1.747-.141 3.505-.034 5.26-.065v16.225c1.756 0 3.508.02 5.259-.07V36.1H11.144l-.007.008zM67.078 15h36.243v34.558c-4.099 5.167-8.263 10.284-12.38 15.435H54.17c0-11.536-.021-23.069.017-34.604 4.324-5.097 8.578-10.267 12.89-15.389zm3.162 20.852a10.935 10.935 0 00-6.755 4.326c-2.339 3.234-2.692 7.726-1.164 11.384a10.725 10.725 0 002.904 3.967 10.625 10.625 0 004.359 2.24c2.311.548 4.727.46 6.992-.258 1.81-.583 3.356-1.774 4.624-3.17l-3.704-3.735c-1.64 2.14-4.736 3.115-7.181 1.83-3.428-1.771-4.09-6.885-1.707-9.778a5.286 5.286 0 012.019-1.522 5.248 5.248 0 012.49-.407c1.728.083 3.29 1.093 4.33 2.439l3.816-3.846c-2.578-3.244-7.1-4.275-11.023-3.47zm47.133-16.243c1.317-1.51 2.525-3.146 3.898-4.59 12.069-.039 24.141 0 36.21-.019.029 11.518 0 23.037.019 34.555-4.132 5.153-8.269 10.3-12.41 15.445h-36.75V30.45c2.998-3.627 6.029-7.221 9.038-10.836l-.005-.005zm-.193 16.438v21.637h5.568v-5.251h4.116c2.179-.098 4.399-.837 5.958-2.412 1.678-1.58 2.484-3.953 2.404-6.238.051-2.195-.879-4.43-2.605-5.795-1.743-1.407-4.033-1.93-6.229-1.936h-9.2l-.012-.005zm5.551 4.95c.036 2.195 0 4.39.022 6.585 1.99-.12 4.288.43 5.97-.946 1.656-1.273 1.31-4.241-.566-5.122-1.683-.826-3.62-.482-5.423-.517h-.003z" fill="#E01D42"/><path fill-rule="evenodd" clip-rule="evenodd" d="M70.24 35.852c3.922-.805 8.435.226 11.013 3.477l-3.816 3.846c-1.04-1.353-2.602-2.363-4.33-2.438a5.247 5.247 0 00-2.486.41 5.285 5.285 0 00-2.013 1.523c-2.382 2.893-1.722 8.007 1.707 9.777 2.445 1.286 5.542.31 7.18-1.829l3.698 3.724c-1.269 1.403-2.814 2.593-4.625 3.17-2.265.718-4.68.808-6.992.26a10.626 10.626 0 01-4.358-2.24 10.727 10.727 0 01-2.905-3.967c-1.528-3.658-1.174-8.15 1.165-11.385a10.935 10.935 0 016.754-4.326l.008-.002zm46.939.195h9.2c2.196 0 4.487.529 6.23 1.936 1.726 1.366 2.663 3.602 2.605 5.795.08 2.285-.726 4.658-2.404 6.238-1.559 1.576-3.789 2.315-5.959 2.412-1.367.017-2.738 0-4.115 0v5.25h-5.557V36.043v.005zm5.552 4.95c.036 2.195 0 4.39.022 6.585 1.99-.12 4.287.43 5.97-.946 1.656-1.273 1.31-4.241-.567-5.122-1.694-.812-3.631-.468-5.425-.502v-.015zm-111.594-4.89H26.56v21.086c-1.75.09-3.503.078-5.258.071V41.04c-1.756.032-3.513-.076-5.261.066-.11 3.414-.242 6.872-1.09 10.196-.484 1.849-1.452 3.624-3.016 4.758-1.497 1.117-3.39 1.57-5.225 1.573v-4.828c1.937-.357 3.273-2.254 3.714-4.093.854-4.148.712-8.401.712-12.603z" fill="#fff"/></svg>