<svg width="420" height="354" fill="none" xmlns="http://www.w3.org/2000/svg"><path d="M464.691 351.66c-3.368 8.464-11.964 15.103-26.001 19.331-13.981 4.212-32.688 5.801-54.949 4.653-44.479-2.293-102.221-15.461-162.593-39.071-60.371-23.61-111.631-53.071-145.712-81.5-17.057-14.229-29.632-28.052-36.948-40.593-7.346-12.59-9.055-23.26-5.688-31.724 3.367-8.464 11.963-15.104 26-19.332 13.982-4.211 32.689-5.801 54.95-4.653 44.479 2.294 102.221 15.462 162.592 39.072 60.372 23.61 111.632 53.07 145.712 81.5 17.058 14.228 29.632 28.051 36.949 40.592 7.346 12.591 9.055 23.26 5.688 31.725z" stroke="#015AAA" stroke-width="8"/><path d="M414.565 442.901c-8.016 4.487-18.925 4.269-32.506-1.206-13.534-5.455-29.072-15.897-45.634-30.683-33.091-29.545-69.582-75.817-101.485-131.843-31.902-56.026-53.011-110.908-61.43-154.263-4.214-21.698-5.203-40.283-2.923-54.59 2.288-14.358 7.736-23.73 15.752-28.218 8.016-4.486 18.924-4.268 32.506 1.207 13.534 5.455 29.072 15.897 45.633 30.683 33.092 29.545 69.583 75.817 101.486 131.843 31.902 56.026 53.011 110.908 61.43 154.263 4.213 21.698 5.203 40.283 2.923 54.59-2.288 14.358-7.736 23.731-15.752 28.217z" stroke="#015AAA" stroke-width="8"/></svg>