<svg width="22" height="22" fill="none" xmlns="http://www.w3.org/2000/svg"><path fill-rule="evenodd" clip-rule="evenodd" d="M22 11c0 6.075-4.925 11-11 11S0 17.075 0 11 4.925 0 11 0s11 4.925 11 11zM7.366 9.992c-1.102.481-2.234.976-3.27 1.546-.54.396.179.676.853.938l.313.125.252.08c.75.238 1.586.505 2.314.104 1.195-.687 2.324-1.48 3.451-2.274.37-.26.739-.52 1.11-.776l.059-.038c.316-.205 1.028-.666.765-.03-.623.68-1.29 1.283-1.96 1.889a40.33 40.33 0 00-1.348 1.255c-.386.313-.787.943-.355 1.382.995.696 2.005 1.375 3.014 2.054l.985.664c.556.443 1.424.084 1.546-.609l.164-.956c.301-1.762.602-3.525.869-5.293.036-.277.077-.555.118-.832.1-.673.2-1.346.23-2.022-.08-.675-.898-.526-1.353-.375a211.42 211.42 0 00-6.964 2.82c-.261.116-.526.232-.793.348z" fill="#000B15"/></svg>