<svg width="30" height="30" fill="none" xmlns="http://www.w3.org/2000/svg"><path d="M15 30c8.284 0 15-6.716 15-15 0-8.284-6.716-15-15-15C6.716 0 0 6.716 0 15c0 8.284 6.716 15 15 15z" fill="url(#paint0_linear_425_5210)"/><path d="M5.587 15.734c1.753-.966 3.71-1.772 5.54-2.582 3.146-1.328 6.305-2.632 9.496-3.846.62-.207 1.736-.41 1.845.51-.06 1.303-.306 2.598-.475 3.892-.429 2.847-.925 5.685-1.408 8.522-.167.945-1.35 1.435-2.108.83-1.821-1.23-3.656-2.448-5.453-3.706-.59-.598-.043-1.458.483-1.885 1.5-1.478 3.09-2.734 4.511-4.288.383-.925-.75-.145-1.123.094-2.053 1.415-4.056 2.916-6.22 4.159-1.106.609-2.394.088-3.5-.251-.99-.41-2.442-.824-1.588-1.45z" fill="#fff"/><defs><linearGradient id="paint0_linear_425_5210" x1="11.252" y1="1.251" x2="3.752" y2="18.75" gradientUnits="userSpaceOnUse"><stop stop-color="#37AEE2"/><stop offset="1" stop-color="#1E96C8"/></linearGradient></defs></svg>