<svg width="22" height="22" fill="none" xmlns="http://www.w3.org/2000/svg"><path fill-rule="evenodd" clip-rule="evenodd" d="M11 22C4.925 22 0 17.075 0 11S4.925 0 11 0s11 4.925 11 11-4.925 11-11 11zm.363-4.88a6.551 6.551 0 006.54-6.541 6.501 6.501 0 00-1.913-4.627 6.499 6.499 0 00-4.627-1.919 6.55 6.55 0 00-6.541 6.54 6.512 6.512 0 00.873 3.27l-.928 3.39 3.467-.91a6.535 6.535 0 003.126.797h.003z" fill="#000B15"/><path fill-rule="evenodd" clip-rule="evenodd" d="M8.395 15.14l-2.058.54.55-2.007-.13-.206a5.423 5.423 0 01-.831-2.893 5.445 5.445 0 015.439-5.436 5.4 5.4 0 013.843 1.594A5.404 5.404 0 0116.8 10.58a5.444 5.444 0 01-5.436 5.436h-.003a5.429 5.429 0 01-2.767-.758l-.198-.117zm6.263-3.006c-.041-.068-.15-.109-.313-.19-.164-.082-.967-.478-1.117-.532-.15-.055-.259-.082-.368.081a9.514 9.514 0 01-.518.641c-.095.11-.19.123-.354.041-.163-.082-.69-.254-1.314-.81a4.928 4.928 0 01-.91-1.133c-.094-.164-.01-.252.073-.334.073-.073.163-.19.245-.286.082-.095.109-.164.163-.273.055-.109.027-.204-.013-.286-.041-.082-.368-.886-.504-1.213-.133-.32-.268-.276-.368-.281a6.482 6.482 0 00-.313-.006.6.6 0 00-.436.205c-.15.163-.572.559-.572 1.363 0 .805.585 1.582.667 1.69.082.11 1.153 1.76 2.792 2.469.39.168.695.269.932.344a2.24 2.24 0 001.03.065c.313-.047.966-.396 1.102-.777.137-.382.137-.71.096-.778z" fill="#000B15"/></svg>