<svg width="30" height="30" fill="none" xmlns="http://www.w3.org/2000/svg"><path d="M15 30c8.284 0 15-6.716 15-15 0-8.284-6.716-15-15-15C6.716 0 0 6.716 0 15c0 8.284 6.716 15 15 15z" fill="#25D366"/><path fill-rule="evenodd" clip-rule="evenodd" d="M15.494 23.345h-.003a8.911 8.911 0 01-4.263-1.085L6.5 23.5l1.265-4.622a8.903 8.903 0 01-1.19-4.46c.002-4.917 4.003-8.918 8.92-8.918a8.862 8.862 0 016.309 2.616 8.865 8.865 0 012.61 6.31c-.002 4.917-4.002 8.917-8.92 8.92zm-4.047-2.7l.271.16a7.404 7.404 0 003.773 1.034h.003c4.087 0 7.412-3.326 7.414-7.414a7.37 7.37 0 00-2.17-5.244 7.363 7.363 0 00-5.24-2.174c-4.09 0-7.416 3.325-7.417 7.412 0 1.401.391 2.765 1.133 3.946l.176.28-.748 2.736 2.805-.736zm8.236-4.299c.155.075.26.126.305.201.056.093.056.54-.13 1.06s-1.076.995-1.504 1.06c-.384.057-.87.08-1.404-.089-.324-.103-.739-.24-1.27-.47-2.09-.902-3.502-2.927-3.769-3.31l-.039-.055-.002-.002c-.117-.157-.908-1.212-.908-2.303 0-1.027.505-1.565.737-1.812l.043-.047a.819.819 0 01.594-.28c.15 0 .298.002.428.009h.05c.13 0 .291-.001.451.382.062.148.151.367.246.598.192.467.404.982.441 1.057.056.112.093.242.019.39l-.031.064c-.056.114-.097.198-.192.308a7.62 7.62 0 00-.114.138c-.077.093-.154.186-.22.253-.112.111-.228.232-.098.455s.577.953 1.24 1.544c.712.635 1.331.903 1.645 1.04.061.026.11.047.147.066.223.111.353.093.483-.056s.557-.65.706-.874c.148-.223.297-.186.501-.111.204.074 1.3.613 1.523.725l.122.06z" fill="#fff"/></svg>