<svg width="20" height="20" viewBox="0 0 20 20" fill="none" xmlns="http://www.w3.org/2000/svg">
<path fill-rule="evenodd" clip-rule="evenodd" d="M20 4.66667C20 5.03486 19.7015 5.33333 19.3333 5.33333H0.666667C0.298477 5.33333 0 5.03486 0 4.66667C0 4.29848 0.298476 4 0.666666 4H19.3333C19.7015 4 20 4.29848 20 4.66667ZM20 10C20 10.3682 19.7015 10.6667 19.3333 10.6667H0.666667C0.298477 10.6667 0 10.3682 0 10C0 9.63181 0.298476 9.33333 0.666666 9.33333H19.3333C19.7015 9.33333 20 9.63181 20 10ZM20 15.3333C20 15.7015 19.7015 16 19.3333 16H0.666666C0.298477 16 0 15.7015 0 15.3333C0 14.9651 0.298476 14.6667 0.666666 14.6667H19.3333C19.7015 14.6667 20 14.9651 20 15.3333Z" fill="white"/>
</svg>
