<svg width="21" height="21" viewBox="0 0 21 21" fill="none" xmlns="http://www.w3.org/2000/svg">
<path d="M7 19.25C7.48325 19.25 7.875 18.8582 7.875 18.375C7.875 17.8918 7.48325 17.5 7 17.5C6.51675 17.5 6.125 17.8918 6.125 18.375C6.125 18.8582 6.51675 19.25 7 19.25Z" stroke="#015AAA" stroke-width="1.5" stroke-linecap="round" stroke-linejoin="round"/>
<path d="M16.625 19.25C17.1082 19.25 17.5 18.8582 17.5 18.375C17.5 17.8918 17.1082 17.5 16.625 17.5C16.1418 17.5 15.75 17.8918 15.75 18.375C15.75 18.8582 16.1418 19.25 16.625 19.25Z" stroke="#015AAA" stroke-width="1.5" stroke-linecap="round" stroke-linejoin="round"/>
<path d="M1.79297 1.7937H3.54297L5.87047 12.6612C5.95585 13.0592 6.17731 13.415 6.49672 13.6673C6.81613 13.9197 7.21351 14.0528 7.62047 14.0437H16.178C16.5762 14.0431 16.9624 13.9066 17.2726 13.6568C17.5828 13.407 17.7986 13.0589 17.8842 12.67L19.328 6.1687H4.47922" stroke="#015AAA" stroke-width="1.5" stroke-linecap="round" stroke-linejoin="round"/>
</svg>
