<svg width="32" height="32" viewBox="0 0 32 32" fill="none" xmlns="http://www.w3.org/2000/svg">
<path d="M10.0674 1.06641H5.33307C2.97666 1.06641 1.06641 2.97666 1.06641 5.33307V9.59974C1.06641 21.3818 10.6177 30.9331 22.3997 30.9331H26.6664C29.0228 30.9331 30.9331 29.0228 30.9331 26.6664V23.7182C30.9331 22.9102 30.4765 22.1715 29.7538 21.8101L24.5998 19.2331C23.4386 18.6525 22.0324 19.235 21.6219 20.4666L20.9867 22.3723C20.5752 23.6067 19.3089 24.3416 18.033 24.0864C12.9262 23.065 8.93444 19.0733 7.91309 13.9665C7.6579 12.6906 8.39275 11.4243 9.62717 11.0128L11.9922 10.2245C13.0498 9.87194 13.6576 8.76465 13.3873 7.68319L12.1371 2.68233C11.8996 1.73264 11.0463 1.06641 10.0674 1.06641Z" stroke="#015AAA" stroke-width="1.5"/>
</svg>
