<svg width="32" height="32" viewBox="0 0 32 32" fill="none" xmlns="http://www.w3.org/2000/svg">
<path d="M11.7331 24.5178L12.357 24.1016C12.2179 23.893 11.9838 23.7678 11.7331 23.7678V24.5178ZM15.9997 30.9136L15.3758 31.3298C15.5149 31.5384 15.7491 31.6636 15.9997 31.6636C16.2504 31.6636 16.4845 31.5384 16.6237 31.3298L15.9997 30.9136ZM20.2664 24.5178V23.7678C20.0157 23.7678 19.7816 23.893 19.6425 24.1016L20.2664 24.5178ZM11.1092 24.934L15.3758 31.3298L16.6237 30.4974L12.357 24.1016L11.1092 24.934ZM16.6237 31.3298L20.8903 24.934L19.6425 24.1016L15.3758 30.4974L16.6237 31.3298ZM20.2664 25.2678H28.7997V23.7678H20.2664V25.2678ZM28.7997 25.2678C30.3932 25.2678 31.6831 23.9795 31.6831 22.3858H30.1831C30.1831 23.1501 29.5657 23.7678 28.7997 23.7678V25.2678ZM31.6831 22.3858V3.19835H30.1831V22.3858H31.6831ZM31.6831 3.19835C31.6831 1.60471 30.3932 0.316406 28.7997 0.316406V1.81641C29.5657 1.81641 30.1831 2.43406 30.1831 3.19835H31.6831ZM28.7997 0.316406H3.19974V1.81641H28.7997V0.316406ZM3.19974 0.316406C1.60625 0.316406 0.316406 1.60471 0.316406 3.19835H1.81641C1.81641 2.43406 2.43376 1.81641 3.19974 1.81641V0.316406ZM0.316406 3.19835V22.3858H1.81641V3.19835H0.316406ZM0.316406 22.3858C0.316406 23.9795 1.60625 25.2678 3.19974 25.2678V23.7678C2.43376 23.7678 1.81641 23.1501 1.81641 22.3858H0.316406ZM3.19974 25.2678H11.7331V23.7678H3.19974V25.2678ZM14.9331 14.6164H17.0664V13.1164H14.9331V14.6164ZM8.53307 14.6164H10.6664V13.1164H8.53307V14.6164ZM21.3331 14.6164H23.4664V13.1164H21.3331V14.6164Z" fill="#015AAA"/>
</svg>
