<svg width="220" height="39" viewBox="0 0 220 39" fill="none" xmlns="http://www.w3.org/2000/svg">
<path fill-rule="evenodd" clip-rule="evenodd" d="M21.8974 10.0197C13.2489 10.7739 6.40149 13.5365 2.54777 17.8262C-4.33741 25.4906 3.31614 35.0631 18.4861 37.7599C28.6681 39.57 39.6465 38.0588 46.5489 33.8969C48.9467 32.451 51.5097 29.7657 52.3812 27.7862C52.9869 26.4106 53.065 25.9215 52.9572 24.1761C52.8037 21.6861 51.9526 19.9223 49.8665 17.7702C45.8054 13.5807 38.4554 10.7504 29.7388 10.0197C25.9694 9.70371 25.5216 9.70371 21.8974 10.0197ZM32.4081 11.9575C36.9427 12.8921 41.5567 15.3264 43.7459 17.9391C45.4481 19.9702 46.1443 21.8562 46.1445 24.4364C46.1448 27.3766 45.3261 29.1909 42.9633 31.4864C40.1377 34.2319 36.2508 35.986 31.2602 36.7682C27.952 37.2867 25.5518 37.289 22.3016 36.7766C13.5216 35.392 7.45221 30.7048 6.78406 24.7922C6.19862 19.6133 10.8274 14.577 18.1914 12.3803C22.5721 11.0737 27.421 10.9294 32.4081 11.9575ZM25.3225 13.8362C24.0813 16.0551 16.9434 29.1407 15.4528 31.9305L14.4422 33.8215H17.6657H20.889L21.1988 33.0511C21.3691 32.6272 21.8535 31.6691 22.2752 30.9214L23.0416 29.5621L24.1724 31.6918L25.3029 33.8215H28.6611C31.9569 33.8215 32.014 33.8109 31.7257 33.2506C31.5641 32.9365 30.3948 30.825 29.1275 28.558C26.1811 23.2878 26.2485 23.4895 27.001 22.1929L27.6171 21.1314L28.5466 22.7838C29.058 23.6929 30.62 26.5476 32.018 29.1278L34.56 33.8195L36.5194 33.8204L38.4789 33.8215L38.0982 33.1912C37.8886 32.8446 35.3202 28.1484 32.3904 22.7555C29.4605 17.3625 26.9129 12.7184 26.7286 12.4355C26.4266 11.9713 26.2892 12.1083 25.3225 13.8362ZM69.4422 14.0007C69.2967 14.3472 67.3098 19.1065 65.0268 24.5765C60.5135 35.3901 59.9696 36.3429 58.3065 36.3429C57.3961 36.3429 57.3255 36.4034 57.3255 37.1833V38.0238H61.9056H66.4857V37.1833C66.4857 36.4096 66.4108 36.3429 65.5427 36.3429C64.4629 36.3429 63.5221 35.5428 63.5221 34.6244C63.5221 34.2955 63.6625 33.5391 63.8341 32.9435L64.1463 31.8604H68.6504H73.1548L73.7475 33.2937C74.0738 34.0818 74.3615 35.0589 74.3871 35.4649C74.4302 36.1527 74.348 36.2084 73.1752 36.2874C71.8513 36.3762 71.1692 36.8897 71.4313 37.5999C71.5685 37.9714 73.4878 38.0238 86.9707 38.0238H102.354L102.268 37.2534C102.193 36.5751 102.055 36.472 101.109 36.3919C99.3823 36.2459 99.3543 36.1703 99.3543 31.643V27.5719L102.057 22.3621C105.583 15.5651 107.054 14.0651 108.748 15.5415C109.217 15.9506 113.061 24.7123 117.537 35.5725L118.547 38.0238H121.439H124.331L127.499 30.5297C133.55 16.2161 134.052 15.3471 136.512 14.9151C137.443 14.7515 137.611 14.6184 137.611 14.0461V13.3704H132.627H127.643V14.0707C127.643 14.5901 127.786 14.7711 128.195 14.7711C129.12 14.7711 130.32 15.581 130.5 16.3274C130.771 17.4513 130.478 18.4039 128.152 23.9601C126.946 26.8415 125.78 29.6352 125.562 30.1686L125.163 31.1382L124.818 30.3087C122.781 25.4239 119.282 16.6523 119.147 16.0915C118.944 15.2499 119.576 14.7711 120.89 14.7711C121.591 14.7711 121.716 14.6655 121.716 14.0707V13.3704H111.209H100.701V14.0388C100.701 14.6165 100.866 14.7333 101.914 14.8966C102.769 15.03 103.126 15.2174 103.126 15.5334C103.126 16.0136 99.2277 23.9332 98.7174 24.4899C98.4857 24.7429 97.8556 23.7013 96.1213 20.2002C93.9132 15.7421 93.8499 15.5625 94.3543 15.174C94.642 14.9524 95.2784 14.7711 95.7687 14.7711C96.5414 14.7711 96.6602 14.6773 96.6602 14.0668V13.3625L88.241 13.4365L79.8217 13.5104L79.7382 14.1212C79.6652 14.6546 79.8182 14.7565 80.9506 14.928C83.5744 15.325 83.725 15.5057 87.4753 22.749L89.9377 27.5055L89.8639 31.854L89.7901 36.2028L87.61 36.2835C85.8351 36.349 85.3213 36.2709 84.8471 35.8633C84.3633 35.4469 79.9249 25.6553 75.6994 15.6816L74.7201 13.3704H72.2137C69.8722 13.3704 69.6896 13.4118 69.4422 14.0007ZM137.497 22.9633C131.602 37.0329 132.196 35.9633 130.068 36.328C129.285 36.4622 129.11 36.6211 129.039 37.2635L128.953 38.0372L133.619 37.9605L138.285 37.8837V37.1881C138.285 36.6031 138.126 36.4656 137.289 36.3241C136.741 36.2314 136.104 35.9932 135.874 35.7946C135.399 35.385 135.317 33.6781 135.719 32.579L135.981 31.8604H140.449H144.915L145.593 33.3996C145.966 34.2459 146.232 35.2231 146.184 35.5708C146.111 36.1076 145.895 36.2238 144.751 36.3429C143.521 36.4709 143.396 36.5499 143.319 37.2534L143.233 38.0238H163.457H183.681L183.683 36.6931C183.683 35.961 183.762 33.9442 183.858 32.2106L184.033 29.0589L183.251 29.0611C182.563 29.0634 182.356 29.2856 181.526 30.9132C181.007 31.9305 180.167 33.1433 179.659 33.608C177.604 35.4876 173.667 36.7623 170.512 36.5695L169.096 36.483L176.107 26.2574C179.962 20.6333 183.324 15.6385 183.576 15.158C184.55 13.304 184.986 13.3704 171.835 13.3704H159.973V17.7127V22.0551H160.596C161.052 22.0551 161.35 21.7719 161.701 21.0045C163.059 18.0408 165.21 16.0758 168.037 15.216C169.522 14.7644 173.183 14.5969 173.164 14.9812C173.158 15.0969 169.968 19.9189 166.074 25.6971C159.597 35.3094 158.925 36.2101 158.169 36.288C157.604 36.3465 157.122 36.1692 156.646 35.7277C156.192 35.3074 154.312 31.3195 151.257 24.2963L146.565 13.5104L144.041 13.4381L141.518 13.3659L137.497 22.9633ZM70.6791 25.4774L72.3762 29.4791L70.6433 29.5621C69.6901 29.6074 68.1337 29.6074 67.1843 29.5621L65.4581 29.4791L67.0886 25.3407C67.9855 23.0648 68.7784 21.2639 68.8506 21.3393C68.9228 21.4144 69.7456 23.2766 70.6791 25.4774ZM142.422 25.2788C143.332 27.4368 144.077 29.2965 144.077 29.4111C144.077 29.5256 142.562 29.6192 140.71 29.6192C138.857 29.6192 137.342 29.5116 137.342 29.3805C137.342 29.1766 137.953 27.6139 140.196 22.082C140.408 21.5578 140.623 21.1796 140.674 21.2415C140.724 21.3037 141.511 23.1205 142.422 25.2788Z" fill="#015AAA"/>
<circle cx="51.5492" cy="11.9667" r="3.30701" stroke="#015AAA" stroke-width="0.75"/>
<path d="M50.3027 9.88135H51.6026C51.8974 9.88135 52.1464 9.92629 52.3496 10.0162C52.5545 10.1061 52.7101 10.2391 52.8161 10.4153C52.924 10.5897 52.9779 10.8045 52.9779 11.0598C52.9779 11.2396 52.9411 11.4041 52.8674 11.5534C52.7955 11.7008 52.6912 11.8266 52.5545 11.9309C52.4197 12.0334 52.2579 12.1098 52.0691 12.1601L51.9235 12.2168H50.7019L50.6965 11.7934H51.6188C51.8057 11.7934 51.9613 11.761 52.0853 11.6963C52.2094 11.6298 52.3028 11.5408 52.3658 11.4293C52.4287 11.3178 52.4602 11.1947 52.4602 11.0598C52.4602 10.9088 52.4305 10.7767 52.3712 10.6634C52.3118 10.5501 52.2183 10.463 52.0907 10.4018C51.9649 10.3389 51.8021 10.3074 51.6026 10.3074H50.8232V13.8079H50.3027V9.88135ZM52.5977 13.8079L51.643 12.028L52.1851 12.0253L53.1532 13.7755V13.8079H52.5977Z" fill="#015AAA"/>
<path d="M193.582 4.91169H196.832C197.569 4.91169 198.191 5.02406 198.699 5.24879C199.212 5.47352 199.6 5.80613 199.866 6.2466C200.135 6.68258 200.27 7.21969 200.27 7.85793C200.27 8.30739 200.178 8.71865 199.994 9.09171C199.814 9.46027 199.553 9.77489 199.212 10.0356C198.874 10.2918 198.47 10.4828 197.998 10.6086L197.634 10.7502H194.58L194.566 9.69174H196.872C197.34 9.69174 197.728 9.61084 198.038 9.44903C198.349 9.28273 198.582 9.06025 198.74 8.78158C198.897 8.50291 198.976 8.19503 198.976 7.85793C198.976 7.48038 198.901 7.15002 198.753 6.86686C198.605 6.5837 198.371 6.36571 198.052 6.21289C197.737 6.05558 197.331 5.97692 196.832 5.97692H194.883V14.728H193.582V4.91169ZM199.319 14.728L196.933 10.2783L198.288 10.2716L200.708 14.6471V14.728H199.319Z" fill="#015AAA"/>
<path d="M207.706 4.91169H209.001V11.5525C209.001 12.2896 208.837 12.9032 208.509 13.3931C208.181 13.883 207.745 14.2516 207.201 14.4988C206.661 14.7415 206.075 14.8628 205.441 14.8628C204.776 14.8628 204.174 14.7415 203.634 14.4988C203.099 14.2516 202.675 13.883 202.36 13.3931C202.05 12.9032 201.895 12.2896 201.895 11.5525V4.91169H203.183V11.5525C203.183 12.0649 203.277 12.4874 203.466 12.82C203.655 13.1526 203.917 13.3998 204.255 13.5616C204.596 13.7234 204.992 13.8043 205.441 13.8043C205.895 13.8043 206.291 13.7234 206.628 13.5616C206.969 13.3998 207.234 13.1526 207.423 12.82C207.612 12.4874 207.706 12.0649 207.706 11.5525V4.91169Z" fill="#015AAA"/>
<path d="M216.275 12.2469C216.275 12.0177 216.24 11.8155 216.168 11.6402C216.1 11.4604 215.979 11.2986 215.804 11.1547C215.633 11.0109 215.395 10.8738 215.089 10.7435C214.788 10.6131 214.406 10.4806 213.943 10.3457C213.457 10.2019 213.019 10.0423 212.628 9.86703C212.237 9.68725 211.902 9.48274 211.624 9.25352C211.345 9.02429 211.131 8.76135 210.983 8.46471C210.835 8.16806 210.761 7.82872 210.761 7.44667C210.761 7.06463 210.839 6.7118 210.997 6.38818C211.154 6.06457 211.379 5.78365 211.671 5.54544C211.967 5.30273 212.32 5.11395 212.729 4.97911C213.138 4.84428 213.594 4.77686 214.098 4.77686C214.835 4.77686 215.46 4.91844 215.972 5.2016C216.489 5.48027 216.882 5.84658 217.152 6.30054C217.422 6.75 217.556 7.23093 217.556 7.74332H216.262C216.262 7.37476 216.183 7.0489 216.026 6.76573C215.869 6.47808 215.63 6.25334 215.311 6.09154C214.992 5.92524 214.588 5.84208 214.098 5.84208C213.635 5.84208 213.253 5.91175 212.952 6.05109C212.651 6.19042 212.426 6.37919 212.277 6.61741C212.134 6.85563 212.062 7.12755 212.062 7.43319C212.062 7.63994 212.104 7.82872 212.19 7.99951C212.28 8.16581 212.417 8.32088 212.601 8.46471C212.79 8.60854 213.028 8.74113 213.316 8.86248C213.608 8.98384 213.956 9.1007 214.361 9.21306C214.918 9.37038 215.399 9.54567 215.804 9.73894C216.208 9.93221 216.541 10.1502 216.801 10.3929C217.067 10.6311 217.262 10.903 217.388 11.2087C217.518 11.5098 217.583 11.8514 217.583 12.2335C217.583 12.6335 217.503 12.9953 217.341 13.3189C217.179 13.6425 216.947 13.919 216.646 14.1482C216.345 14.3774 215.983 14.5549 215.561 14.6808C215.143 14.8021 214.675 14.8628 214.158 14.8628C213.705 14.8628 213.257 14.7999 212.817 14.6741C212.381 14.5482 211.983 14.3594 211.624 14.1077C211.268 13.856 210.983 13.5459 210.767 13.1773C210.556 12.8043 210.45 12.3728 210.45 11.8829H211.745C211.745 12.22 211.81 12.5099 211.94 12.7526C212.071 12.9908 212.248 13.1886 212.473 13.3459C212.702 13.5032 212.961 13.6201 213.248 13.6965C213.54 13.7684 213.844 13.8043 214.158 13.8043C214.612 13.8043 214.997 13.7414 215.311 13.6156C215.626 13.4897 215.864 13.3099 216.026 13.0762C216.192 12.8425 216.275 12.5661 216.275 12.2469Z" fill="#015AAA"/>
<path d="M219.5 9.66527C219.5 12.104 217.945 14.3834 215.283 16.0778C212.626 17.7685 208.925 18.8305 204.811 18.8305C200.698 18.8305 196.997 17.7685 194.34 16.0778C191.677 14.3834 190.123 12.104 190.123 9.66527C190.123 7.22652 191.677 4.94717 194.34 3.25272C196.997 1.56206 200.698 0.5 204.811 0.5C208.925 0.5 212.626 1.56206 215.283 3.25272C217.945 4.94717 219.5 7.22652 219.5 9.66527Z" stroke="#015AAA"/>
</svg>
