<svg width="498" height="359" viewBox="0 0 498 359" fill="none" xmlns="http://www.w3.org/2000/svg">
<path fill-rule="evenodd" clip-rule="evenodd" d="M406.993 47.2906C403.637 48.2802 403.628 48.2851 403.213 49.4384C402.719 50.8096 402.646 53.3307 403.068 54.4445C403.521 55.6396 401.077 57.5996 397.282 59.0841C394.201 60.289 394.581 59.9888 387.34 66.9403C385.34 68.8611 383.007 70.7473 381.786 71.4323C378.746 73.1362 375.413 77.2043 373.263 81.8338C372.188 84.1492 372.247 85.3847 373.558 87.9409C375.054 90.8602 375.209 91.4572 374.622 92.0458C374.353 92.3146 373.93 92.5348 373.68 92.5348C372.808 92.5348 367.939 97.9165 367.05 99.8634C366.242 101.632 366.221 101.82 366.598 103.822C367.219 107.121 366.529 109.519 364.959 109.519C364.504 109.519 363.11 109.082 361.861 108.548C359.034 107.339 357.593 107.317 353.906 108.423C351.24 109.223 350.961 109.389 350.166 110.651C349.693 111.401 348.337 112.959 347.153 114.114C345.002 116.212 344.115 117.655 344.113 119.062C344.111 120.157 342.939 121.898 341.949 122.275C340.811 122.709 339.463 122.244 337.634 120.785C335.513 119.094 332.416 119.351 328.91 121.51C327.865 122.154 326.454 122.959 325.775 123.299C322.66 124.86 321.04 130.04 322.577 133.524C322.955 134.379 323.263 135.273 323.263 135.511C323.263 136.125 321.044 138.213 319.609 138.949C317.309 140.128 314.898 143.378 313.501 147.184C313.125 148.207 312.863 148.193 310.317 147.003C308.498 146.154 307.156 144.572 305.845 141.729C304.17 138.097 298.897 133.991 296.627 134.551C294.574 135.058 292.616 137.295 291.807 140.058C291.498 141.11 290.764 142.329 289.74 143.487L288.151 145.284H280.646C271.679 145.284 271.841 145.224 270.379 149.069C269.874 150.4 269.221 151.978 268.93 152.576C267.958 154.568 265.359 155.222 263.836 153.857C263.06 153.163 263.041 153.069 263.49 152.143C264.568 149.923 265.467 148.746 268.025 146.206C271.057 143.196 272.97 140.509 273.617 138.355L274.055 136.895L272.221 133.157C269.783 128.189 269.166 127.667 266.015 127.906C264.183 128.045 263 128.385 260.765 129.417C257.288 131.023 257.522 131.014 255.703 129.622C253.877 128.224 251.823 127.156 250.962 127.156C249.173 127.156 248.422 129.988 249.498 132.682C250.11 134.216 250.009 134.439 247.828 136.398C245.93 138.102 244.726 138.5 240.261 138.901C235.095 139.364 230.008 141.473 227.049 144.378C223.127 148.229 222.368 149.927 223.431 152.477C224.051 153.965 223.769 154.253 221.686 154.261C220.521 154.265 220.101 154.076 219.15 153.123C217.871 151.841 217.9 151.852 217.031 152.318C216.184 152.773 213.144 159.192 213.144 160.527C213.144 163.796 216.401 170.163 218.918 171.817L219.724 172.347L218.147 173.758C217.279 174.534 216.472 175.169 216.354 175.169C216.061 175.169 213.047 171.039 212.301 169.617C211.971 168.988 211.257 167.164 210.712 165.564C210.037 163.578 209.465 162.464 208.909 162.054C207.855 161.276 204.522 160.414 203.052 160.538L201.904 160.635L201.811 163.457L201.717 166.279L200.215 166.658C199.275 166.896 198.349 167.428 197.739 168.082C195.87 170.086 195.852 170.158 195.832 175.631C195.811 181.4 195.783 181.312 198.56 184.096C200.463 186.004 200.495 186.969 198.672 187.572C196.943 188.145 195.068 189.668 194.428 191.022C192.615 194.851 188.46 196.835 186.59 194.764C185.838 193.932 187.589 192.235 190.796 190.688C193.948 189.168 194.001 189.015 193.523 182.76C193.048 176.549 193.05 176.438 193.695 171.329C194.311 166.448 194.636 165.473 196.311 163.47C198.243 161.163 199.766 155.524 198.698 154.636C198.095 154.134 193.425 152.633 192.467 152.633C190.539 152.633 188.175 154.659 185.749 158.392C185.006 159.536 184.288 160.471 184.153 160.471C183.71 160.471 182.305 162.893 181.786 164.554C180.964 167.185 180.872 168.24 181.261 170.6C181.758 173.617 180.254 179.978 179.144 179.551C178.587 179.337 176.123 176.201 174.921 174.178C174.445 173.376 173.456 172.058 172.722 171.25C171.989 170.441 170.734 168.788 169.934 167.575C168.21 164.964 167.449 164.749 166.009 166.468C164.35 168.448 161.532 170.051 159.445 170.202C157.246 170.36 154.127 169.39 152.909 168.169L152.121 167.379L153.003 166.329C153.576 165.646 153.849 164.982 153.785 164.427C153.689 163.598 153.615 163.572 151.127 163.478C149.69 163.424 147.474 163.605 146.077 163.89C144.693 164.173 142.284 164.372 140.655 164.338C137.602 164.274 135.05 165.168 131.932 167.394C131.097 167.99 130.898 168.016 130.162 167.621C129.198 167.103 127.786 165.147 127.786 164.327C127.786 163.819 129.852 162.105 130.463 162.105C131.091 162.105 135.264 159.314 135.612 158.662C136.513 156.974 134.166 153.279 132.201 153.293C130.852 153.303 128.782 154.308 127.758 155.449C125.177 158.327 122.573 163.075 122.573 164.901C122.573 166.609 120.596 166.661 118.001 165.021C115.445 163.405 112.981 162.974 107.812 163.241L103.3 163.474L101.941 162.049C101.074 161.141 100.381 159.99 100.029 158.875L99.4763 157.127L101.593 152.892L103.709 148.658L105.352 151.38C108.694 156.919 110.56 158.834 112.615 158.837C113.601 158.838 116.383 157.657 116.383 157.236C116.383 157.106 116.955 156.676 117.654 156.283C118.729 155.677 118.978 155.327 119.264 154.018C120.147 149.974 119.925 143.236 118.794 139.806C118.304 138.318 118.312 138.193 118.965 137.03C121.936 131.738 122.728 128.354 121.225 127.368C119.841 126.46 116.697 125.866 112.91 125.796L109.194 125.727L108.191 126.946C107.64 127.617 106.184 128.969 104.957 129.951C102.242 132.122 101.371 132.951 100.686 134.015C100.396 134.464 98.5663 136.531 96.6187 138.608C90.0383 145.625 84.49 153.373 83.4986 156.929C82.6151 160.099 81.6533 160.631 75.0133 161.619C71.277 162.176 71.035 162.287 68.6537 164.553C65.1628 167.874 64.9165 167.984 60.9845 167.984H57.4855L55.4134 169.505C54.2738 170.342 52.6291 171.665 51.7586 172.445C50.6512 173.437 49.8879 173.863 49.2171 173.863C47.9553 173.863 47.493 174.97 46.9626 179.262C46.6566 181.737 46.6465 183.334 46.9196 185.919C47.3708 190.187 47.3633 190.206 42.9592 196.424C42.3767 197.246 41.6387 198.753 41.3188 199.772C40.8454 201.282 40.6056 201.625 40.0257 201.625C39.6344 201.625 38.9708 201.866 38.5508 202.161C38.1309 202.456 37.1822 202.876 36.4423 203.094C34.0073 203.81 34.9788 206.027 38.8434 208.573C39.9273 209.286 39.9889 209.428 40.0863 211.435C40.23 214.398 38.9848 221.66 38.0032 223.585C36.5739 226.385 37.1994 227.877 40.6539 229.906C43.1416 231.368 45.0267 234.624 45.0316 237.467C45.0326 238.048 45.2069 239.173 45.4186 239.967L45.8037 241.41L44.0359 243.456C41.9222 245.902 40.2616 246.752 35.7066 247.72C32.0897 248.489 31.4404 248.861 29.2764 251.4C27.4194 253.579 27.178 253.665 24.5084 253.107C22.0392 252.59 21.3625 252.835 19.8658 254.783C18.6069 256.422 18.6926 257.973 20.3086 262.793C22.3151 268.779 24.6987 273.407 27.8384 277.415C34.8075 286.311 36.0637 288.812 35.7278 293.118C35.5177 295.808 35.5545 296.063 36.3635 297.514C36.8355 298.361 37.3109 299.611 37.4197 300.292C37.7953 302.647 38.2997 302.877 43.0863 302.877C47.2304 302.877 47.3209 302.861 48.2928 301.979C49.4308 300.945 50.23 297.898 50.2417 294.548C50.2466 293.155 50.4424 292.27 50.9187 291.487C51.2872 290.881 51.884 289.593 52.2457 288.625C52.9725 286.677 54.8706 284.934 57.0306 284.231C57.6894 284.017 59.3014 283.348 60.6131 282.745C61.9244 282.142 63.34 281.562 63.7586 281.456C65.9291 280.91 66.695 278.161 65.5906 274.88C64.7132 272.273 64.7302 271.463 65.7281 268.296C66.5853 265.577 67.8816 263.562 70.6176 260.7C72.5965 258.63 73.0002 258.68 73.6114 261.07C74.1049 262.999 76.7579 262.823 80.1341 260.637C82.0423 259.403 86.4373 258.268 87.9897 258.61C89.1544 258.866 90.6596 260.32 92.2068 262.683C97.9708 271.487 101.305 273.989 108.783 275.122C111.934 275.6 112.141 275.706 114.754 278.21C116.894 280.26 117.928 280.776 120.639 281.142C122.862 281.441 123.87 279.805 123.874 275.894L123.876 274.223L128.428 269.606C133.711 264.247 132.683 264.583 139.96 265.844C144.272 266.591 145.36 266.668 148.637 266.454C153.363 266.145 154.69 266.17 157.922 266.63C161.485 267.136 162.052 267.405 162.908 268.998C165.793 274.368 175.662 279.536 184.44 280.274C188.406 280.607 188.597 280.987 190.18 291.682C191.54 300.863 191.368 300.681 198.924 300.961C208.662 301.321 213.641 303.506 214.312 307.713L214.533 309.097L218.424 311.05C221.923 312.806 222.517 313.002 224.327 313C229.278 312.994 235.964 310.361 239.159 307.158C240.733 305.58 241.106 305.362 242.164 305.404C243.541 305.459 248.322 307.187 252.306 309.069C257.209 311.386 257.239 311.387 264.946 309.684C268.374 308.927 268.461 307.486 265.359 302.815C263.92 300.649 263.913 300.622 264.458 299.697C265.901 297.248 270.468 296.32 276.251 297.301C280.141 297.962 280.473 298.137 280.32 299.446C280.017 302.049 283.427 301.61 291.148 298.051C295.046 296.255 296.314 296.347 300.231 298.714C304.053 301.024 305.858 301.683 308.439 301.71C311.989 301.747 313.662 300.759 318.691 295.653C324.094 290.168 324.674 289.887 331.477 289.473C335.462 289.23 336.881 289.009 338.576 288.367C339.74 287.927 341.087 287.483 341.568 287.382C343.582 286.958 343.933 285.735 343.845 279.444C343.758 273.183 343.239 271.114 341.388 269.655C340.916 269.282 340.53 268.726 340.53 268.417C340.53 267.981 342.415 265.354 343.458 264.336C343.55 264.246 344.212 263.438 344.928 262.54C345.644 261.642 346.451 260.635 346.72 260.302C348.209 258.462 350.744 256.84 353.639 255.873C359.024 254.074 359.98 254.43 363.587 259.569C371.819 271.3 375.127 273.123 380.242 268.745C382.313 266.974 383.887 266.479 385.969 266.947C388.014 267.406 390.01 268.391 391.237 269.545C393.74 271.9 395.72 272.356 399.087 271.354C400.525 270.926 401.133 270.437 403.626 267.709C409.403 261.386 410.563 261.422 411.106 267.943C411.333 270.68 410.329 277.799 409.416 279.927C408.981 280.942 406.781 282.746 403.746 284.578C401.816 285.743 401.787 286.376 403.507 289.897C404.317 291.557 405.215 293.587 405.503 294.409C406.93 298.49 409.316 300.24 413.105 299.987C413.611 299.953 414.188 299.399 414.943 298.223C416.271 296.154 417.136 295.336 418.979 294.408C419.748 294.021 420.944 293.16 421.636 292.494C422.328 291.827 423.275 291.018 423.74 290.695C424.577 290.114 424.585 290.066 424.568 285.959C424.559 283.677 424.353 280.708 424.11 279.361C423.772 277.485 423.746 276.222 423.998 273.971C424.414 270.263 424.146 266.547 423.105 261.558C422.014 256.336 421.812 253.347 422.286 249.452C422.819 245.072 422.67 244.723 417.168 237.458C415.507 235.265 412.689 231.471 410.905 229.027C407.963 224.998 404.715 221.593 402.115 219.814C401.672 219.511 400.704 219.263 399.964 219.263C397.793 219.263 396.725 220.257 394.7 224.162C392.483 228.436 392.742 228.216 391.017 227.3C390.217 226.876 389.049 226.42 388.422 226.287C386.938 225.973 386.569 225.648 385.665 223.856C383.732 220.025 383.592 218.927 383.776 208.974C383.942 199.934 383.934 199.788 383.088 196.292C381.71 190.596 381.929 189.818 386.141 185.458C387.356 184.2 389.261 181.925 390.376 180.401C391.491 178.877 393.364 176.599 394.539 175.338C395.715 174.078 397.245 172.143 397.94 171.039C399.663 168.302 399.979 168.268 403.599 170.435C405.056 171.307 405.526 170.944 407.086 167.75C407.856 166.172 409.103 163.909 409.857 162.722C411.82 159.633 411.577 157.568 409.178 156.945C408.521 156.775 407.772 156.183 407.157 155.348C406.618 154.619 405.445 153.042 404.549 151.843C400.878 146.932 401.16 147.54 400.92 144.022L400.701 140.8L402.005 141.021C402.981 141.186 403.795 141.054 405.233 140.499C406.502 140.008 407.924 139.743 409.417 139.717C412.465 139.665 412.664 139.306 411.143 136.59C410.501 135.444 409.011 133.345 407.832 131.928C406.654 130.511 405.69 129.232 405.69 129.086C405.69 128.672 409.714 124.876 410.157 124.873C411.928 124.86 415.211 131.572 415.135 135.051C415.031 139.853 415.16 140.391 417.737 145.937C419.251 149.195 419.263 149.295 418.9 155.652L418.644 160.14L422.405 163.98C424.474 166.092 426.796 168.555 427.566 169.453C434.708 177.784 444.28 184.968 448.239 184.968C451.544 184.968 453.644 183.604 454.101 181.159C454.374 179.7 453.669 178.142 451.336 175.053C449.386 172.469 449.378 172.415 450.648 170.16C452.752 166.422 452.193 164.309 448.564 162.274C445.11 160.338 444.108 158.596 445.274 156.552C446.47 154.453 445.747 153.042 442.342 150.83C441.446 150.248 439.824 148.975 438.737 148.002C437.651 147.028 435.243 145.211 433.386 143.964C428.384 140.604 425.782 136.897 424.704 131.598C424.232 129.28 424.233 128.906 424.713 127.191C425.396 124.751 425.374 123.61 424.609 121.664C423.9 119.86 424.18 119.032 426.231 116.868C426.741 116.329 427.393 115.374 427.678 114.745C427.964 114.116 428.556 113.105 428.994 112.498C430.014 111.084 429.93 110.729 427.321 105.436C425.183 101.098 423.633 96.1158 423.002 91.5549C422.676 89.1983 422.897 88.4929 424.672 86.2287C426.432 83.9845 426.281 82.6787 423.942 79.8783C422.853 78.5751 421.704 77.5103 421.386 77.5103C421.069 77.5103 419.71 78.2334 418.367 79.1176C415.577 80.9538 411.955 82.5115 410.843 82.3537C410.169 82.2577 410.025 81.9295 409.509 79.3067C408.662 75.0048 408.068 74.0158 405.119 71.9882C403.731 71.0338 403.783 70.6595 405.445 69.6055C406.207 69.1227 408.149 67.7552 409.762 66.5669C411.375 65.3784 413.224 64.1278 413.872 63.7881C416.105 62.6175 416.983 61.5971 418.058 58.9221C419.714 54.8044 419.504 54.5209 415.254 55.1392C413.198 55.4381 412.769 54.9527 412.218 51.7074C411.575 47.9157 411.557 47.8674 410.639 47.515C409.011 46.8905 408.464 46.8568 406.993 47.2906ZM371.767 58.9721C371.118 59.5574 370.399 60.5506 370.17 61.1794C369.941 61.8081 369.335 63.0754 368.825 63.9955C367.44 66.4922 367.556 66.9981 369.856 68.4835C372.074 69.9158 372.542 69.823 374.218 67.6193C376.051 65.2108 376.392 63.4683 375.443 61.3642C375.114 60.6339 374.708 59.5953 374.541 59.0564C374.123 57.7097 373.198 57.6816 371.767 58.9721ZM235.485 101.655C234.588 102.593 233.686 105.389 233.675 107.264C233.672 107.73 233.376 108.377 233.018 108.702C231.645 109.948 232.624 113.701 234.907 115.945C237.244 118.243 239.398 119.123 243.036 119.264C244.693 119.328 246.05 119.494 246.05 119.633C246.05 119.854 245.44 120.475 242.751 122.992C241.511 124.152 242.192 124.838 245.017 125.277C246.615 125.525 247.671 125.534 248.405 125.306C249.578 124.941 253.702 122.018 254.001 121.34C254.326 120.599 252.883 115.613 252.128 114.872C251.061 113.825 247.262 112.458 245.419 112.458C243.257 112.458 242.873 111.685 241.958 105.485C241.769 104.204 241.433 103.797 238.933 101.82C237.205 100.453 236.659 100.427 235.485 101.655ZM320.633 102.326C318.483 103.465 317.014 105.435 317.267 106.839C317.804 109.822 318.317 109.81 322.968 106.706C327.413 103.739 327.87 103.066 326.033 102.192C324.584 101.503 322.068 101.565 320.633 102.326ZM308.274 107.071C307.361 107.561 306.674 108.753 306.659 109.876C306.65 110.579 306.423 110.789 305.317 111.122C304.204 111.456 303.881 111.758 303.349 112.965C302.998 113.76 302.424 114.564 302.073 114.752C301.171 115.236 301.281 116.28 302.342 117.301C306.541 121.344 307.213 121.738 309.505 121.501C311.81 121.262 312.592 120.454 314.615 116.215C317.542 110.081 316.881 108.163 311.49 107.143C309.521 106.77 308.862 106.755 308.274 107.071ZM317.48 119.072C314.924 119.894 317.103 123.89 320.108 123.89C320.963 123.89 322.937 122.123 322.937 121.357C322.937 119.317 320.235 118.185 317.48 119.072ZM194.617 126.838C192.591 128.173 189.351 128.839 186.028 128.603C180.27 128.195 173.234 131.277 171.497 134.968C171.037 135.946 170.331 136.45 166.881 138.263C162.171 140.739 158.883 142.924 158.356 143.929C158.153 144.315 157.652 145.035 157.242 145.53C156.048 146.969 155.967 148.745 156.925 152.469C157.745 155.655 157.811 155.778 159.635 157.447C161.945 159.562 162.397 159.582 163.635 157.625C164.835 155.727 165.248 154.295 165.25 152.025C165.252 150.456 165.41 150.059 166.78 148.189C168.235 146.203 169.076 145.48 171.844 143.837C172.513 143.44 173.358 142.695 173.723 142.181C174.45 141.157 175.417 140.767 178.61 140.21C181.144 139.768 182.451 139.017 184.012 137.108C184.998 135.901 185.412 135.648 186.699 135.473C189.583 135.079 195.693 133.349 196.739 132.63C198.117 131.684 200.112 128.619 200.112 127.449C200.112 125.59 197.033 125.247 194.617 126.838ZM454.357 184.564C453.756 184.959 451.983 188.744 451.77 190.087C451.373 192.584 456.233 197.196 457.351 195.383C457.732 194.765 457.798 188.796 457.438 187.42C456.811 185.019 455.506 183.81 454.357 184.564ZM456.905 197.771C456.119 198.558 456.785 202.946 457.963 204.749C459.287 206.774 461.444 204.505 461.529 200.996C461.561 199.66 461.457 199.468 460.153 198.465C458.689 197.337 457.575 197.099 456.905 197.771ZM459.336 207.396C458.204 207.991 458.181 209.405 459.274 211.275C460.812 213.906 462.204 213.373 462.204 210.155C462.204 207.451 461.154 206.441 459.336 207.396ZM405.896 212.754C404.83 213.595 404.754 215.138 405.69 216.976C406.048 217.681 406.341 218.839 406.341 219.551C406.341 221.826 408.781 224.638 414.968 229.497C420.365 233.734 422.131 235.596 425.119 240.199C425.632 240.989 426.319 241.93 426.645 242.289C426.972 242.649 428.245 244.339 429.474 246.045C432.239 249.884 436.703 254.538 437.62 254.538C438.25 254.538 438.282 254.372 438.196 251.516L438.106 248.495L440.224 248.332C443.252 248.098 443.753 247.589 442.637 245.881C442.098 245.056 438.149 241.735 435.61 239.97C434.344 239.09 431.427 235.349 431.427 234.604C431.427 234.46 431.867 233.926 432.405 233.418C432.942 232.909 433.382 232.174 433.382 231.785C433.382 230.953 431.262 229.268 429.5 228.7C427.223 227.966 425.451 226.277 422.64 222.164C419.727 217.9 417.01 215.997 413.839 215.997C412.905 215.997 411.489 215.06 409.679 213.246C408.325 211.888 407.183 211.74 405.896 212.754ZM459.267 216.481C456.624 219.291 458.391 222.546 461.787 221.123C464.287 220.076 464.538 219.073 462.852 216.86C461.449 215.019 460.716 214.941 459.267 216.481ZM459.266 224.507C458.848 224.97 458.618 225.833 458.526 227.284C458.365 229.813 459.081 231.006 461.549 232.327C463.543 233.395 464.01 232.899 464 229.734C463.985 225.392 461.222 222.341 459.266 224.507ZM460.017 235.188C458.948 235.852 458.629 237.161 458.937 239.628C459.17 241.499 458.689 242.3 456.4 243.856C455.727 244.313 455.536 244.711 455.534 245.653C455.533 246.318 455.375 247.43 455.183 248.125C454.609 250.195 454.944 250.744 457.678 252.222C460.297 253.639 461.103 253.821 461.677 253.128C462.239 252.449 462.507 249.172 462.096 247.991C461.815 247.183 461.837 246.483 462.192 244.942C464.061 236.836 463.246 233.181 460.017 235.188ZM454.462 253.764C454.336 253.89 454.233 254.406 454.233 254.91C454.233 255.594 453.99 255.953 453.277 256.323C452.299 256.83 451.772 256.86 444.133 256.848C438.863 256.839 438.595 256.901 438.595 258.131C438.595 259.658 439.09 260.547 441.325 263.035C444.737 266.834 444.976 267.756 443.143 270.068C442.553 270.812 442.174 271.68 442.167 272.302C442.161 272.861 441.946 273.686 441.69 274.135C440.91 275.502 441.121 276.067 443.237 278.28C446.812 282.018 451.836 283.804 452.397 281.537C452.493 281.148 452.598 279.508 452.631 277.891C452.663 276.274 452.809 274.628 452.956 274.233C453.266 273.396 454.829 272.502 455.982 272.502C457.274 272.502 457.782 272.181 458.974 270.617C460.332 268.833 460.377 267.94 459.262 264.826C458.812 263.569 458.361 262.291 458.26 261.986C458.142 261.629 458.482 261.013 459.219 260.253C460.584 258.844 460.917 257.756 460.349 256.563C459.703 255.206 455.172 253.052 454.462 253.764Z" fill="#F0F2F6"/>
<path d="M205.5 208C227.833 189.833 291.6 153.8 368 155" stroke="#015AAA" stroke-linecap="round" stroke-linejoin="round" stroke-dasharray="4 4"/>
<path d="M183.4 205.591C183.4 203.606 185.013 201.994 187 201.994C188.988 201.994 190.6 203.606 190.6 205.591C190.6 207.575 188.988 209.187 187 209.187C185.013 209.187 183.4 207.575 183.4 205.591Z" fill="#015AAA"/>
<path fill-rule="evenodd" clip-rule="evenodd" d="M171.4 205.591C171.4 196.981 178.387 190 187 190C195.614 190 202.6 196.981 202.6 205.591C202.6 212.008 199.389 217.093 195.949 220.53C194.225 222.253 192.419 223.589 190.872 224.5C190.099 224.956 189.377 225.314 188.749 225.562C188.156 225.796 187.533 225.978 187 225.978C186.467 225.978 185.845 225.796 185.252 225.562C184.624 225.314 183.902 224.956 183.129 224.5C181.582 223.589 179.776 222.253 178.052 220.53C174.612 217.093 171.4 212.008 171.4 205.591ZM187 199.594C183.689 199.594 181 202.279 181 205.591C181 208.902 183.689 211.587 187 211.587C190.312 211.587 193 208.902 193 205.591C193 202.279 190.312 199.594 187 199.594Z" fill="#015AAA"/>
<path d="M256.335 148.167C256.335 153.667 249.001 159.167 249.001 159.167C249.001 159.167 241.668 153.667 241.668 148.167C241.668 146.222 242.441 144.356 243.816 142.981C245.191 141.606 247.056 140.833 249.001 140.833C250.946 140.833 252.811 141.606 254.187 142.981C255.562 144.356 256.335 146.222 256.335 148.167V148.167Z" stroke="#015AAA" stroke-width="2" stroke-linecap="round" stroke-linejoin="round"/>
<path d="M249 150.917C250.519 150.917 251.75 149.685 251.75 148.167C251.75 146.648 250.519 145.417 249 145.417C247.481 145.417 246.25 146.648 246.25 148.167C246.25 149.685 247.481 150.917 249 150.917Z" stroke="#015AAA" stroke-width="2" stroke-linecap="round" stroke-linejoin="round"/>
<path d="M166.5 208C149.667 192.667 134 185.5 92 191" stroke="#015AAA" stroke-linecap="round" stroke-linejoin="round" stroke-dasharray="4 4"/>
<path d="M204 214.5C237.333 191.667 293.2 163.699 358 238.499" stroke="#015AAA" stroke-linecap="round" stroke-linejoin="round" stroke-dasharray="4 4"/>
<path d="M190.5 228.5C200.156 240.314 206 238.5 210.5 269.5" stroke="#015AAA" stroke-linecap="round" stroke-linejoin="round" stroke-dasharray="4 4"/>
<path d="M173.5 220C160 224.5 152.5 230.5 143.5 247.5" stroke="#015AAA" stroke-linecap="round" stroke-linejoin="round" stroke-dasharray="4 4"/>
<path d="M198.5 222C214.399 219.029 236.158 214.661 250 225" stroke="#015AAA" stroke-linecap="round" stroke-linejoin="round" stroke-dasharray="4 4"/>
<path d="M93.3346 179.167C93.3346 184.667 86.0013 190.167 86.0013 190.167C86.0013 190.167 78.668 184.667 78.668 179.167C78.668 177.222 79.4406 175.356 80.8159 173.981C82.1911 172.606 84.0564 171.833 86.0013 171.833C87.9462 171.833 89.8115 172.606 91.1868 173.981C92.562 175.356 93.3346 177.222 93.3346 179.167V179.167Z" stroke="#015AAA" stroke-width="2" stroke-linecap="round" stroke-linejoin="round"/>
<path d="M86 181.917C87.5188 181.917 88.75 180.685 88.75 179.167C88.75 177.648 87.5188 176.417 86 176.417C84.4812 176.417 83.25 177.648 83.25 179.167C83.25 180.685 84.4812 181.917 86 181.917Z" stroke="#015AAA" stroke-width="2" stroke-linecap="round" stroke-linejoin="round"/>
<path d="M246.5 162.5C219 183 226.5 181 205.5 201.5" stroke="#015AAA" stroke-linecap="round" stroke-linejoin="round" stroke-dasharray="4 4"/>
<path d="M141.335 245.167C141.335 250.667 134.001 256.167 134.001 256.167C134.001 256.167 126.668 250.667 126.668 245.167C126.668 243.222 127.441 241.356 128.816 239.981C130.191 238.606 132.056 237.833 134.001 237.833C135.946 237.833 137.811 238.606 139.187 239.981C140.562 241.356 141.335 243.222 141.335 245.167V245.167Z" stroke="#015AAA" stroke-width="2" stroke-linecap="round" stroke-linejoin="round"/>
<path d="M134 247.917C135.519 247.917 136.75 246.685 136.75 245.167C136.75 243.648 135.519 242.417 134 242.417C132.481 242.417 131.25 243.648 131.25 245.167C131.25 246.685 132.481 247.917 134 247.917Z" stroke="#015AAA" stroke-width="2" stroke-linecap="round" stroke-linejoin="round"/>
<path d="M82.3346 229.167C82.3346 234.667 75.0013 240.167 75.0013 240.167C75.0013 240.167 67.668 234.667 67.668 229.167C67.668 227.222 68.4406 225.356 69.8159 223.981C71.1911 222.606 73.0564 221.833 75.0013 221.833C76.9462 221.833 78.8115 222.606 80.1868 223.981C81.562 225.356 82.3346 227.222 82.3346 229.167V229.167Z" stroke="#015AAA" stroke-width="2" stroke-linecap="round" stroke-linejoin="round"/>
<path d="M75 231.917C76.5188 231.917 77.75 230.685 77.75 229.167C77.75 227.648 76.5188 226.417 75 226.417C73.4812 226.417 72.25 227.648 72.25 229.167C72.25 230.685 73.4812 231.917 75 231.917Z" stroke="#015AAA" stroke-width="2" stroke-linecap="round" stroke-linejoin="round"/>
<path d="M375.335 236.167C375.335 241.667 368.001 247.167 368.001 247.167C368.001 247.167 360.668 241.667 360.668 236.167C360.668 234.222 361.441 232.356 362.816 230.981C364.191 229.606 366.056 228.833 368.001 228.833C369.946 228.833 371.811 229.606 373.187 230.981C374.562 232.356 375.335 234.222 375.335 236.167V236.167Z" stroke="#015AAA" stroke-width="2" stroke-linecap="round" stroke-linejoin="round"/>
<path d="M368 238.917C369.519 238.917 370.75 237.685 370.75 236.167C370.75 234.648 369.519 233.417 368 233.417C366.481 233.417 365.25 234.648 365.25 236.167C365.25 237.685 366.481 238.917 368 238.917Z" stroke="#015AAA" stroke-width="2" stroke-linecap="round" stroke-linejoin="round"/>
<path d="M376.335 140.167C376.335 145.667 369.001 151.167 369.001 151.167C369.001 151.167 361.668 145.667 361.668 140.167C361.668 138.222 362.441 136.356 363.816 134.981C365.191 133.606 367.056 132.833 369.001 132.833C370.946 132.833 372.811 133.606 374.187 134.981C375.562 136.356 376.335 138.222 376.335 140.167V140.167Z" stroke="#015AAA" stroke-width="2" stroke-linecap="round" stroke-linejoin="round"/>
<path d="M369 142.917C370.519 142.917 371.75 141.685 371.75 140.167C371.75 138.648 370.519 137.417 369 137.417C367.481 137.417 366.25 138.648 366.25 140.167C366.25 141.685 367.481 142.917 369 142.917Z" stroke="#015AAA" stroke-width="2" stroke-linecap="round" stroke-linejoin="round"/>
<path d="M262.335 215.167C262.335 220.667 255.001 226.167 255.001 226.167C255.001 226.167 247.668 220.667 247.668 215.167C247.668 213.222 248.441 211.356 249.816 209.981C251.191 208.606 253.056 207.833 255.001 207.833C256.946 207.833 258.811 208.606 260.187 209.981C261.562 211.356 262.335 213.222 262.335 215.167V215.167Z" stroke="#015AAA" stroke-width="2" stroke-linecap="round" stroke-linejoin="round"/>
<path d="M255 217.917C256.519 217.917 257.75 216.685 257.75 215.167C257.75 213.648 256.519 212.417 255 212.417C253.481 212.417 252.25 213.648 252.25 215.167C252.25 216.685 253.481 217.917 255 217.917Z" stroke="#015AAA" stroke-width="2" stroke-linecap="round" stroke-linejoin="round"/>
<ellipse cx="212" cy="280" rx="7" ry="9" fill="#F0F2F6"/>
<path d="M219.335 279.167C219.335 284.667 212.001 290.167 212.001 290.167C212.001 290.167 204.668 284.667 204.668 279.167C204.668 277.222 205.441 275.356 206.816 273.981C208.191 272.606 210.056 271.833 212.001 271.833C213.946 271.833 215.811 272.606 217.187 273.981C218.562 275.356 219.335 277.222 219.335 279.167V279.167Z" stroke="#015AAA" stroke-width="2" stroke-linecap="round" stroke-linejoin="round"/>
<path d="M212 281.917C213.519 281.917 214.75 280.685 214.75 279.167C214.75 277.648 213.519 276.417 212 276.417C210.481 276.417 209.25 277.648 209.25 279.167C209.25 280.685 210.481 281.917 212 281.917Z" stroke="#015AAA" stroke-width="2" stroke-linecap="round" stroke-linejoin="round"/>
<path d="M83.5 235.5C100.333 225.166 140.6 206.9 167 216.5" stroke="#015AAA" stroke-linecap="round" stroke-linejoin="round" stroke-dasharray="4 4"/>
</svg>
