<svg width="445" height="266" viewBox="0 0 445 266" fill="none" xmlns="http://www.w3.org/2000/svg">
<path fill-rule="evenodd" clip-rule="evenodd" d="M387.993 0.290575C384.637 1.28023 384.628 1.28513 384.213 2.43842C383.719 3.80956 383.646 6.33073 384.068 7.4445C384.521 8.6396 382.077 10.5996 378.282 12.0841C375.201 13.289 375.581 12.9888 368.34 19.9403C366.34 21.8611 364.007 23.7473 362.786 24.4323C359.746 26.1362 356.413 30.2043 354.263 34.8338C353.188 37.1492 353.247 38.3847 354.558 40.9409C356.054 43.8602 356.209 44.4572 355.622 45.0458C355.353 45.3146 354.93 45.5348 354.68 45.5348C353.808 45.5348 348.939 50.9165 348.05 52.8634C347.242 54.6321 347.221 54.8202 347.598 56.8217C348.219 60.1212 347.529 62.5189 345.959 62.5189C345.504 62.5189 344.11 62.0819 342.86 61.5479C340.034 60.3394 338.593 60.3169 334.906 61.4234C332.24 62.2233 331.961 62.3893 331.166 63.651C330.693 64.4006 329.337 65.9592 328.153 67.1141C326.002 69.2117 325.115 70.655 325.113 72.0621C325.111 73.1569 323.939 74.8978 322.949 75.275C321.811 75.7091 320.463 75.244 318.634 73.785C316.513 72.0937 313.416 72.3511 309.91 74.5101C308.865 75.1535 307.454 75.9586 306.775 76.299C303.66 77.8602 302.04 83.0404 303.577 86.5238C303.955 87.3785 304.263 88.2728 304.263 88.5109C304.263 89.1249 302.044 91.213 300.609 91.9489C298.309 93.1283 295.898 96.3785 294.501 100.184C294.125 101.207 293.863 101.193 291.317 100.003C289.498 99.1541 288.156 97.5716 286.845 94.7294C285.17 91.0971 279.897 86.9911 277.627 87.5513C275.574 88.0582 273.616 90.2952 272.807 93.0578C272.498 94.1105 271.764 95.3294 270.74 96.4873L269.151 98.2837H261.646C252.679 98.2837 252.841 98.2242 251.379 102.069C250.874 103.4 250.221 104.978 249.93 105.576C248.958 107.568 246.359 108.222 244.836 106.857C244.06 106.163 244.041 106.069 244.49 105.143C245.568 102.923 246.467 101.746 249.025 99.2057C252.057 96.1959 253.97 93.5095 254.617 91.3548L255.055 89.8948L253.221 86.1566C250.783 81.1894 250.166 80.6668 247.015 80.9059C245.183 81.0447 244 81.3854 241.765 82.4172C238.288 84.0232 238.522 84.0137 236.703 82.6216C234.877 81.2244 232.823 80.1563 231.962 80.1563C230.173 80.1563 229.422 82.9878 230.498 85.6821C231.11 87.2155 231.009 87.4393 228.828 89.398C226.93 91.1023 225.726 91.5004 221.261 91.9009C216.095 92.3637 211.008 94.4727 208.049 97.3779C204.127 101.229 203.368 102.927 204.431 105.477C205.051 106.965 204.769 107.253 202.686 107.261C201.522 107.265 201.101 107.076 200.15 106.123C198.871 104.841 198.9 104.852 198.031 105.318C197.184 105.773 194.144 112.192 194.144 113.527C194.144 116.796 197.401 123.163 199.918 124.817L200.724 125.347L199.147 126.758C198.279 127.534 197.472 128.169 197.354 128.169C197.061 128.169 194.047 124.039 193.301 122.617C192.971 121.988 192.257 120.164 191.712 118.564C191.037 116.578 190.465 115.464 189.909 115.054C188.855 114.276 185.522 113.414 184.052 113.538L182.904 113.635L182.811 116.457L182.717 119.279L181.215 119.658C180.275 119.896 179.349 120.428 178.739 121.082C176.87 123.086 176.852 123.158 176.832 128.631C176.811 134.4 176.783 134.312 179.56 137.096C181.463 139.004 181.495 139.969 179.672 140.572C177.943 141.145 176.068 142.668 175.428 144.022C173.615 147.851 169.46 149.835 167.59 147.764C166.838 146.932 168.589 145.235 171.796 143.688C174.948 142.168 175.001 142.015 174.523 135.76C174.048 129.549 174.05 129.438 174.695 124.329C175.311 119.448 175.636 118.473 177.311 116.47C179.243 114.163 180.766 108.524 179.698 107.636C179.095 107.134 174.425 105.633 173.467 105.633C171.539 105.633 169.175 107.659 166.749 111.392C166.006 112.536 165.288 113.471 165.153 113.471C164.71 113.471 163.305 115.893 162.786 117.554C161.964 120.185 161.872 121.24 162.261 123.6C162.758 126.617 161.254 132.978 160.144 132.551C159.587 132.337 157.123 129.201 155.921 127.178C155.445 126.376 154.456 125.058 153.722 124.25C152.989 123.441 151.734 121.788 150.934 120.575C149.21 117.964 148.449 117.749 147.009 119.468C145.35 121.448 142.532 123.051 140.445 123.202C138.246 123.36 135.127 122.39 133.909 121.169L133.121 120.379L134.003 119.329C134.576 118.646 134.849 117.982 134.785 117.427C134.689 116.598 134.615 116.572 132.127 116.478C130.69 116.424 128.474 116.605 127.077 116.89C125.693 117.173 123.284 117.372 121.655 117.338C118.602 117.274 116.05 118.168 112.932 120.394C112.097 120.99 111.898 121.016 111.162 120.621C110.198 120.103 108.786 118.147 108.786 117.327C108.786 116.819 110.852 115.105 111.463 115.105C112.091 115.105 116.264 112.314 116.612 111.662C117.513 109.974 115.166 106.279 113.202 106.293C111.852 106.303 109.782 107.308 108.758 108.449C106.177 111.327 103.573 116.075 103.573 117.901C103.573 119.609 101.596 119.661 99.001 118.021C96.4445 116.405 93.9805 115.974 88.8121 116.241L84.2998 116.474L82.9409 115.049C82.0743 114.141 81.3814 112.99 81.0288 111.875L80.4763 110.127L82.5927 105.892L84.709 101.658L86.3517 104.38C89.6944 109.919 91.5595 111.834 93.6147 111.837C94.6015 111.838 97.3828 110.657 97.3828 110.236C97.3828 110.106 97.9549 109.676 98.6541 109.283C99.7289 108.677 99.9778 108.327 100.264 107.018C101.147 102.974 100.925 96.2361 99.7944 92.8059C99.304 91.3182 99.3115 91.1928 99.9647 90.0297C102.936 84.7378 103.728 81.3537 102.225 80.368C100.841 79.46 97.6972 78.8655 93.9105 78.7956L90.1941 78.7267L89.1913 79.9463C88.6401 80.6169 87.1844 81.9691 85.9572 82.9509C83.2423 85.1222 82.3714 85.9512 81.6856 87.0153C81.3963 87.4644 79.5663 89.5309 77.6187 91.6076C71.0383 98.6246 65.49 106.373 64.4986 109.929C63.6151 113.099 62.6533 113.631 56.0133 114.619C52.277 115.176 52.035 115.287 49.6537 117.553C46.1628 120.874 45.9165 120.984 41.9845 120.984H38.4855L36.4134 122.505C35.2738 123.342 33.6291 124.665 32.7586 125.445C31.6512 126.437 30.8879 126.863 30.2171 126.863C28.9553 126.863 28.493 127.97 27.9626 132.262C27.6566 134.737 27.6465 136.334 27.9196 138.919C28.3708 143.187 28.3633 143.206 23.9592 149.424C23.3767 150.246 22.6387 151.753 22.3188 152.772C21.8454 154.282 21.6056 154.625 21.0257 154.625C20.6344 154.625 19.9708 154.866 19.5508 155.161C19.1309 155.456 18.1822 155.876 17.4423 156.094C15.0073 156.81 15.9788 159.027 19.8434 161.573C20.9273 162.286 20.9889 162.428 21.0863 164.435C21.23 167.398 19.9848 174.66 19.0032 176.585C17.5739 179.385 18.1994 180.877 21.6539 182.906C24.1416 184.368 26.0267 187.624 26.0316 190.467C26.0326 191.048 26.2069 192.173 26.4186 192.967L26.8037 194.41L25.0359 196.456C22.9222 198.902 21.2616 199.752 16.7067 200.72C13.0897 201.489 12.4404 201.861 10.2764 204.4C8.41938 206.579 8.17797 206.665 5.5084 206.107C3.03919 205.59 2.36251 205.835 0.865805 207.783C-0.39307 209.422 -0.307386 210.973 1.30856 215.793C3.31514 221.779 5.69866 226.407 8.83835 230.415C15.8075 239.311 17.0637 241.812 16.7278 246.118C16.5177 248.808 16.5545 249.063 17.3635 250.514C17.8355 251.361 18.3109 252.611 18.4197 253.292C18.7953 255.647 19.2997 255.877 24.0863 255.877C28.2304 255.877 28.3209 255.861 29.2928 254.979C30.4308 253.945 31.23 250.898 31.2417 247.548C31.2466 246.155 31.4424 245.27 31.9187 244.487C32.2872 243.881 32.884 242.593 33.2457 241.625C33.9725 239.677 35.8706 237.934 38.0306 237.231C38.6894 237.017 40.3014 236.348 41.6131 235.745C42.9244 235.142 44.34 234.562 44.7586 234.456C46.9291 233.91 47.695 231.161 46.5906 227.88C45.7132 225.273 45.7302 224.463 46.7281 221.296C47.5853 218.577 48.8816 216.562 51.6176 213.7C53.5965 211.63 54.0002 211.68 54.6114 214.07C55.1049 215.999 57.7579 215.823 61.1341 213.637C63.0423 212.403 67.4373 211.268 68.9897 211.61C70.1544 211.866 71.6596 213.32 73.2068 215.683C78.9708 224.487 82.3047 226.989 89.7833 228.122C92.9344 228.6 93.141 228.706 95.7538 231.21C97.894 233.26 98.9284 233.776 101.639 234.142C103.862 234.441 104.87 232.805 104.874 228.894L104.876 227.223L109.428 222.606C114.711 217.247 113.683 217.583 120.96 218.844C125.272 219.591 126.36 219.668 129.637 219.454C134.363 219.145 135.69 219.17 138.922 219.63C142.485 220.136 143.052 220.405 143.908 221.998C146.793 227.368 156.662 232.536 165.44 233.274C169.406 233.607 169.597 233.987 171.18 244.682C172.54 253.863 172.368 253.681 179.925 253.961C189.662 254.321 194.641 256.506 195.312 260.713L195.533 262.097L199.424 264.05C202.923 265.806 203.517 266.002 205.327 266C210.278 265.994 216.964 263.361 220.159 260.158C221.733 258.58 222.106 258.362 223.164 258.404C224.541 258.459 229.322 260.187 233.306 262.069C238.209 264.386 238.239 264.387 245.946 262.684C249.374 261.927 249.461 260.486 246.359 255.815C244.92 253.649 244.913 253.622 245.458 252.697C246.901 250.248 251.468 249.32 257.251 250.301C261.141 250.962 261.473 251.137 261.32 252.446C261.017 255.049 264.427 254.61 272.148 251.051C276.046 249.255 277.314 249.347 281.231 251.714C285.053 254.024 286.858 254.683 289.439 254.71C292.989 254.747 294.662 253.759 299.691 248.653C305.094 243.168 305.674 242.887 312.476 242.473C316.462 242.23 317.881 242.009 319.576 241.367C320.74 240.927 322.087 240.483 322.568 240.382C324.582 239.958 324.933 238.735 324.845 232.444C324.758 226.183 324.239 224.114 322.388 222.655C321.916 222.282 321.53 221.726 321.53 221.417C321.53 220.981 323.415 218.354 324.458 217.336C324.55 217.246 325.212 216.438 325.928 215.54C326.644 214.642 327.451 213.635 327.72 213.302C329.209 211.462 331.744 209.84 334.639 208.873C340.024 207.074 340.98 207.43 344.587 212.569C352.819 224.3 356.127 226.123 361.242 221.745C363.313 219.974 364.887 219.479 366.969 219.947C369.014 220.406 371.01 221.391 372.237 222.545C374.74 224.9 376.72 225.356 380.087 224.354C381.525 223.926 382.133 223.437 384.626 220.709C390.403 214.386 391.563 214.422 392.106 220.943C392.333 223.68 391.329 230.799 390.416 232.927C389.981 233.942 387.781 235.746 384.746 237.578C382.816 238.743 382.787 239.376 384.507 242.897C385.317 244.557 386.215 246.587 386.503 247.409C387.93 251.49 390.316 253.24 394.105 252.987C394.611 252.953 395.188 252.399 395.943 251.223C397.271 249.154 398.136 248.336 399.979 247.408C400.748 247.021 401.944 246.16 402.636 245.494C403.328 244.827 404.275 244.018 404.74 243.695C405.577 243.114 405.585 243.066 405.568 238.959C405.559 236.677 405.353 233.708 405.11 232.361C404.772 230.485 404.746 229.222 404.998 226.971C405.414 223.263 405.146 219.547 404.105 214.558C403.014 209.336 402.812 206.347 403.286 202.452C403.819 198.072 403.67 197.723 398.168 190.458C396.507 188.265 393.689 184.471 391.905 182.027C388.963 177.998 385.715 174.593 383.115 172.814C382.672 172.511 381.704 172.263 380.964 172.263C378.793 172.263 377.725 173.257 375.7 177.162C373.483 181.436 373.742 181.216 372.017 180.3C371.217 179.876 370.049 179.42 369.422 179.287C367.938 178.973 367.569 178.648 366.665 176.856C364.732 173.025 364.592 171.927 364.776 161.974C364.942 152.934 364.934 152.788 364.088 149.292C362.71 143.596 362.929 142.818 367.141 138.458C368.356 137.2 370.261 134.925 371.376 133.401C372.491 131.877 374.364 129.599 375.539 128.338C376.715 127.078 378.245 125.143 378.94 124.039C380.663 121.302 380.979 121.268 384.599 123.435C386.056 124.307 386.526 123.944 388.086 120.75C388.856 119.172 390.103 116.909 390.857 115.722C392.82 112.633 392.577 110.568 390.178 109.945C389.521 109.775 388.772 109.183 388.157 108.348C387.618 107.619 386.445 106.042 385.549 104.843C381.877 99.9321 382.16 100.54 381.92 97.0216L381.701 93.7998L383.005 94.0206C383.981 94.1859 384.795 94.0543 386.233 93.4987C387.502 93.0081 388.924 92.7426 390.417 92.7171C393.465 92.6652 393.664 92.3062 392.143 89.59C391.501 88.4436 390.011 86.3454 388.832 84.9282C387.654 83.5107 386.69 82.2317 386.69 82.0857C386.69 81.6718 390.714 77.8762 391.157 77.8729C392.928 77.8599 396.211 84.5722 396.135 88.0507C396.031 92.8526 396.16 93.3912 398.737 98.9369C400.251 102.195 400.263 102.295 399.9 108.652L399.644 113.14L403.405 116.98C405.474 119.092 407.796 121.555 408.566 122.453C415.708 130.784 425.28 137.968 429.239 137.968C432.544 137.968 434.644 136.604 435.101 134.159C435.374 132.7 434.669 131.142 432.336 128.053C430.386 125.469 430.378 125.415 431.648 123.16C433.752 119.422 433.193 117.309 429.564 115.274C426.11 113.338 425.108 111.596 426.274 109.552C427.47 107.453 426.747 106.042 423.342 103.83C422.446 103.248 420.824 101.975 419.737 101.002C418.651 100.028 416.243 98.2112 414.386 96.9638C409.384 93.6039 406.782 89.8974 405.704 84.5977C405.232 82.2797 405.233 81.906 405.713 80.1909C406.396 77.7511 406.374 76.6096 405.609 74.6636C404.9 72.8597 405.18 72.0323 407.231 69.8678C407.741 69.3289 408.393 68.3736 408.678 67.7448C408.964 67.1161 409.556 66.1052 409.994 65.4983C411.014 64.0837 410.93 63.729 408.321 58.4362C406.183 54.098 404.633 49.1158 404.002 44.5549C403.676 42.1983 403.897 41.4929 405.672 39.2287C407.432 36.9845 407.281 35.6787 404.942 32.8783C403.853 31.5751 402.704 30.5103 402.386 30.5103C402.069 30.5103 400.71 31.2334 399.367 32.1176C396.577 33.9538 392.955 35.5115 391.843 35.3537C391.169 35.2577 391.025 34.9295 390.509 32.3067C389.662 28.0048 389.068 27.0158 386.119 24.9882C384.731 24.0338 384.783 23.6595 386.445 22.6055C387.207 22.1227 389.149 20.7552 390.762 19.5669C392.375 18.3784 394.224 17.1278 394.872 16.7881C397.105 15.6175 397.983 14.5971 399.058 11.9221C400.714 7.80443 400.504 7.52093 396.254 8.13922C394.198 8.43807 393.769 7.95272 393.218 4.70744C392.575 0.915723 392.557 0.867383 391.639 0.514962C390.011 -0.109533 389.464 -0.143175 387.993 0.290575ZM352.767 11.9721C352.118 12.5574 351.399 13.5506 351.17 14.1794C350.941 14.8081 350.335 16.0754 349.825 16.9955C348.44 19.4922 348.556 19.9981 350.856 21.4835C353.074 22.9158 353.542 22.823 355.218 20.6193C357.051 18.2108 357.392 16.4683 356.443 14.3642C356.114 13.6339 355.708 12.5953 355.541 12.0564C355.123 10.7097 354.198 10.6816 352.767 11.9721ZM216.485 54.6549C215.588 55.5933 214.686 58.3895 214.675 60.2636C214.672 60.7297 214.376 61.3774 214.018 61.7024C212.645 62.9478 213.624 66.7006 215.907 68.9455C218.244 71.2432 220.398 72.1228 224.036 72.2636C225.693 72.3279 227.05 72.4942 227.05 72.6333C227.05 72.8541 226.44 73.4747 223.751 75.9919C222.511 77.1521 223.192 77.8383 226.017 78.277C227.615 78.5249 228.671 78.5337 229.405 78.3057C230.578 77.9409 234.702 75.0183 235.001 74.3396C235.326 73.5991 233.883 68.613 233.128 67.8719C232.061 66.8251 228.262 65.4585 226.418 65.4585C224.257 65.4585 223.873 64.6847 222.958 58.4849C222.769 57.2039 222.433 56.7966 219.933 54.8195C218.205 53.453 217.659 53.4268 216.485 54.6549ZM301.633 55.3258C299.483 56.465 298.014 58.4349 298.267 59.8387C298.804 62.8224 299.317 62.8103 303.968 59.7061C308.413 56.7394 308.87 56.0662 307.033 55.1919C305.584 54.503 303.068 54.5654 301.633 55.3258ZM289.274 60.0709C288.361 60.5605 287.674 61.753 287.659 62.8756C287.65 63.5794 287.423 63.7895 286.317 64.1216C285.204 64.4561 284.881 64.7582 284.349 65.9654C283.998 66.7597 283.424 67.5635 283.073 67.752C282.171 68.2357 282.281 69.2802 283.342 70.3013C287.541 74.3441 288.213 74.7377 290.505 74.5006C292.81 74.2622 293.592 73.4538 295.615 69.2146C298.542 63.081 297.881 61.1635 292.49 60.1428C290.521 59.7701 289.862 59.7554 289.274 60.0709ZM298.48 72.0715C295.924 72.8936 298.103 76.8901 301.108 76.8901C301.963 76.8901 303.937 75.1228 303.937 74.3569C303.937 72.3172 301.235 71.1854 298.48 72.0715ZM175.617 79.8375C173.591 81.1728 170.351 81.8387 167.028 81.6032C161.27 81.1953 154.234 84.2769 152.497 87.9677C152.037 88.946 151.331 89.4496 147.881 91.2633C143.171 93.7388 139.883 95.9245 139.356 96.9285C139.153 97.3146 138.652 98.0354 138.242 98.5303C137.048 99.969 136.967 101.745 137.925 105.469C138.745 108.655 138.811 108.778 140.635 110.447C142.945 112.562 143.397 112.582 144.635 110.625C145.835 108.727 146.248 107.295 146.25 105.025C146.252 103.456 146.41 103.059 147.78 101.189C149.235 99.2034 150.076 98.4803 152.844 96.8367C153.513 96.4396 154.358 95.6946 154.723 95.1811C155.45 94.1568 156.417 93.7672 159.61 93.21C162.144 92.7681 163.451 92.0175 165.012 90.1077C165.998 88.9006 166.412 88.6484 167.699 88.4727C170.583 88.0791 176.693 86.349 177.739 85.6301C179.117 84.6839 181.112 81.6186 181.112 80.449C181.112 78.5895 178.033 78.2469 175.617 79.8375ZM435.357 137.564C434.756 137.959 432.983 141.744 432.77 143.087C432.373 145.584 437.233 150.196 438.351 148.383C438.732 147.765 438.798 141.796 438.438 140.42C437.811 138.019 436.506 136.81 435.357 137.564ZM437.905 150.771C437.119 151.558 437.785 155.946 438.963 157.749C440.287 159.774 442.444 157.505 442.529 153.996C442.561 152.66 442.457 152.468 441.153 151.465C439.689 150.337 438.575 150.099 437.905 150.771ZM440.336 160.396C439.204 160.991 439.181 162.405 440.274 164.275C441.812 166.906 443.204 166.373 443.204 163.155C443.204 160.451 442.154 159.441 440.336 160.396ZM386.896 165.754C385.83 166.595 385.754 168.138 386.69 169.976C387.048 170.681 387.341 171.839 387.341 172.551C387.341 174.826 389.781 177.638 395.968 182.497C401.365 186.734 403.131 188.596 406.119 193.199C406.632 193.989 407.319 194.93 407.645 195.289C407.972 195.649 409.245 197.339 410.474 199.045C413.239 202.884 417.703 207.538 418.62 207.538C419.25 207.538 419.282 207.372 419.196 204.516L419.106 201.495L421.224 201.332C424.252 201.098 424.753 200.589 423.637 198.881C423.098 198.056 419.149 194.735 416.61 192.97C415.344 192.09 412.427 188.349 412.427 187.604C412.427 187.46 412.867 186.926 413.405 186.418C413.942 185.909 414.382 185.174 414.382 184.785C414.382 183.953 412.262 182.268 410.5 181.7C408.223 180.966 406.451 179.277 403.64 175.164C400.727 170.9 398.01 168.997 394.839 168.997C393.905 168.997 392.489 168.06 390.679 166.246C389.325 164.888 388.183 164.74 386.896 165.754ZM440.267 169.481C437.624 172.291 439.391 175.546 442.787 174.123C445.287 173.076 445.538 172.073 443.852 169.86C442.449 168.019 441.716 167.941 440.267 169.481ZM440.266 177.507C439.848 177.97 439.618 178.833 439.526 180.284C439.365 182.813 440.081 184.006 442.549 185.328C444.543 186.395 445.01 185.899 445 182.734C444.985 178.392 442.222 175.341 440.266 177.507ZM441.017 188.188C439.948 188.852 439.629 190.161 439.937 192.628C440.17 194.499 439.689 195.3 437.4 196.856C436.727 197.313 436.536 197.711 436.534 198.653C436.533 199.318 436.375 200.43 436.183 201.125C435.609 203.195 435.944 203.744 438.678 205.222C441.297 206.639 442.103 206.821 442.677 206.128C443.239 205.449 443.507 202.172 443.096 200.991C442.815 200.183 442.837 199.483 443.192 197.942C445.061 189.836 444.246 186.181 441.017 188.188ZM435.462 206.764C435.336 206.89 435.233 207.406 435.233 207.91C435.233 208.594 434.99 208.953 434.277 209.323C433.299 209.83 432.772 209.86 425.133 209.848C419.863 209.839 419.595 209.901 419.595 211.131C419.595 212.658 420.09 213.547 422.325 216.035C425.737 219.834 425.976 220.756 424.143 223.068C423.553 223.812 423.174 224.68 423.167 225.302C423.161 225.861 422.946 226.686 422.69 227.135C421.91 228.502 422.121 229.067 424.237 231.28C427.812 235.018 432.836 236.804 433.397 234.537C433.493 234.148 433.598 232.508 433.631 230.891C433.663 229.274 433.809 227.628 433.956 227.233C434.266 226.396 435.829 225.502 436.982 225.502C438.274 225.502 438.782 225.181 439.974 223.617C441.332 221.833 441.377 220.94 440.262 217.826C439.812 216.569 439.361 215.291 439.26 214.986C439.142 214.629 439.482 214.013 440.219 213.253C441.584 211.844 441.917 210.756 441.349 209.563C440.703 208.206 436.172 206.052 435.462 206.764Z" fill="#F0F2F6"/>
<path d="M186.5 161C208.833 142.833 272.6 106.8 349 108" stroke="#015AAA" stroke-linecap="round" stroke-linejoin="round" stroke-dasharray="4 4"/>
<path d="M164.4 158.591C164.4 156.606 166.013 154.994 168 154.994C169.988 154.994 171.6 156.606 171.6 158.591C171.6 160.575 169.988 162.187 168 162.187C166.013 162.187 164.4 160.575 164.4 158.591Z" fill="#015AAA"/>
<path fill-rule="evenodd" clip-rule="evenodd" d="M152.4 158.591C152.4 149.981 159.387 143 168 143C176.614 143 183.6 149.981 183.6 158.591C183.6 165.008 180.388 170.093 176.949 173.53C175.225 175.253 173.419 176.589 171.872 177.5C171.099 177.956 170.377 178.314 169.749 178.562C169.156 178.796 168.533 178.978 168 178.978C167.467 178.978 166.845 178.796 166.252 178.562C165.624 178.314 164.902 177.956 164.129 177.5C162.582 176.589 160.776 175.253 159.052 173.53C155.612 170.093 152.4 165.008 152.4 158.591ZM168 152.594C164.689 152.594 162 155.279 162 158.591C162 161.902 164.689 164.587 168 164.587C171.312 164.587 174 161.902 174 158.591C174 155.279 171.312 152.594 168 152.594Z" fill="#015AAA"/>
<path d="M237.335 101.167C237.335 106.667 230.001 112.167 230.001 112.167C230.001 112.167 222.668 106.667 222.668 101.167C222.668 99.2217 223.441 97.3564 224.816 95.9811C226.191 94.6059 228.056 93.8333 230.001 93.8333C231.946 93.8333 233.811 94.6059 235.187 95.9811C236.562 97.3564 237.335 99.2217 237.335 101.167V101.167Z" stroke="#015AAA" stroke-width="2" stroke-linecap="round" stroke-linejoin="round"/>
<path d="M230 103.917C231.519 103.917 232.75 102.685 232.75 101.167C232.75 99.6479 231.519 98.4167 230 98.4167C228.481 98.4167 227.25 99.6479 227.25 101.167C227.25 102.685 228.481 103.917 230 103.917Z" stroke="#015AAA" stroke-width="2" stroke-linecap="round" stroke-linejoin="round"/>
<path d="M147.5 161C130.667 145.667 115 138.5 73 144" stroke="#015AAA" stroke-linecap="round" stroke-linejoin="round" stroke-dasharray="4 4"/>
<path d="M185 167.5C218.333 144.667 274.2 116.699 339 191.499" stroke="#015AAA" stroke-linecap="round" stroke-linejoin="round" stroke-dasharray="4 4"/>
<path d="M171.5 181.5C181.156 193.314 187 191.5 191.5 222.5" stroke="#015AAA" stroke-linecap="round" stroke-linejoin="round" stroke-dasharray="4 4"/>
<path d="M154.5 173C141 177.5 133.5 183.5 124.5 200.5" stroke="#015AAA" stroke-linecap="round" stroke-linejoin="round" stroke-dasharray="4 4"/>
<path d="M179.5 175C195.399 172.029 217.158 167.661 231 178" stroke="#015AAA" stroke-linecap="round" stroke-linejoin="round" stroke-dasharray="4 4"/>
<path d="M74.3346 132.167C74.3346 137.667 67.0013 143.167 67.0013 143.167C67.0013 143.167 59.668 137.667 59.668 132.167C59.668 130.222 60.4406 128.356 61.8159 126.981C63.1911 125.606 65.0564 124.833 67.0013 124.833C68.9462 124.833 70.8115 125.606 72.1868 126.981C73.562 128.356 74.3346 130.222 74.3346 132.167V132.167Z" stroke="#015AAA" stroke-width="2" stroke-linecap="round" stroke-linejoin="round"/>
<path d="M67 134.917C68.5188 134.917 69.75 133.685 69.75 132.167C69.75 130.648 68.5188 129.417 67 129.417C65.4812 129.417 64.25 130.648 64.25 132.167C64.25 133.685 65.4812 134.917 67 134.917Z" stroke="#015AAA" stroke-width="2" stroke-linecap="round" stroke-linejoin="round"/>
<path d="M227.5 115.5C200 136 207.5 134 186.5 154.5" stroke="#015AAA" stroke-linecap="round" stroke-linejoin="round" stroke-dasharray="4 4"/>
<path d="M122.335 198.167C122.335 203.667 115.001 209.167 115.001 209.167C115.001 209.167 107.668 203.667 107.668 198.167C107.668 196.222 108.441 194.356 109.816 192.981C111.191 191.606 113.056 190.833 115.001 190.833C116.946 190.833 118.811 191.606 120.187 192.981C121.562 194.356 122.335 196.222 122.335 198.167V198.167Z" stroke="#015AAA" stroke-width="2" stroke-linecap="round" stroke-linejoin="round"/>
<path d="M115 200.917C116.519 200.917 117.75 199.685 117.75 198.167C117.75 196.648 116.519 195.417 115 195.417C113.481 195.417 112.25 196.648 112.25 198.167C112.25 199.685 113.481 200.917 115 200.917Z" stroke="#015AAA" stroke-width="2" stroke-linecap="round" stroke-linejoin="round"/>
<path d="M63.3346 182.167C63.3346 187.667 56.0013 193.167 56.0013 193.167C56.0013 193.167 48.668 187.667 48.668 182.167C48.668 180.222 49.4406 178.356 50.8159 176.981C52.1911 175.606 54.0564 174.833 56.0013 174.833C57.9462 174.833 59.8115 175.606 61.1868 176.981C62.562 178.356 63.3346 180.222 63.3346 182.167V182.167Z" stroke="#015AAA" stroke-width="2" stroke-linecap="round" stroke-linejoin="round"/>
<path d="M56 184.917C57.5188 184.917 58.75 183.685 58.75 182.167C58.75 180.648 57.5188 179.417 56 179.417C54.4812 179.417 53.25 180.648 53.25 182.167C53.25 183.685 54.4812 184.917 56 184.917Z" stroke="#015AAA" stroke-width="2" stroke-linecap="round" stroke-linejoin="round"/>
<path d="M356.335 189.167C356.335 194.667 349.001 200.167 349.001 200.167C349.001 200.167 341.668 194.667 341.668 189.167C341.668 187.222 342.441 185.356 343.816 183.981C345.191 182.606 347.056 181.833 349.001 181.833C350.946 181.833 352.811 182.606 354.187 183.981C355.562 185.356 356.335 187.222 356.335 189.167V189.167Z" stroke="#015AAA" stroke-width="2" stroke-linecap="round" stroke-linejoin="round"/>
<path d="M349 191.917C350.519 191.917 351.75 190.685 351.75 189.167C351.75 187.648 350.519 186.417 349 186.417C347.481 186.417 346.25 187.648 346.25 189.167C346.25 190.685 347.481 191.917 349 191.917Z" stroke="#015AAA" stroke-width="2" stroke-linecap="round" stroke-linejoin="round"/>
<path d="M357.335 93.1666C357.335 98.6666 350.001 104.167 350.001 104.167C350.001 104.167 342.668 98.6666 342.668 93.1666C342.668 91.2217 343.441 89.3564 344.816 87.9811C346.191 86.6059 348.056 85.8333 350.001 85.8333C351.946 85.8333 353.811 86.6059 355.187 87.9811C356.562 89.3564 357.335 91.2217 357.335 93.1666V93.1666Z" stroke="#015AAA" stroke-width="2" stroke-linecap="round" stroke-linejoin="round"/>
<path d="M350 95.9167C351.519 95.9167 352.75 94.6855 352.75 93.1667C352.75 91.6479 351.519 90.4167 350 90.4167C348.481 90.4167 347.25 91.6479 347.25 93.1667C347.25 94.6855 348.481 95.9167 350 95.9167Z" stroke="#015AAA" stroke-width="2" stroke-linecap="round" stroke-linejoin="round"/>
<path d="M243.335 168.167C243.335 173.667 236.001 179.167 236.001 179.167C236.001 179.167 228.668 173.667 228.668 168.167C228.668 166.222 229.441 164.356 230.816 162.981C232.191 161.606 234.056 160.833 236.001 160.833C237.946 160.833 239.811 161.606 241.187 162.981C242.562 164.356 243.335 166.222 243.335 168.167V168.167Z" stroke="#015AAA" stroke-width="2" stroke-linecap="round" stroke-linejoin="round"/>
<path d="M236 170.917C237.519 170.917 238.75 169.685 238.75 168.167C238.75 166.648 237.519 165.417 236 165.417C234.481 165.417 233.25 166.648 233.25 168.167C233.25 169.685 234.481 170.917 236 170.917Z" stroke="#015AAA" stroke-width="2" stroke-linecap="round" stroke-linejoin="round"/>
<ellipse cx="193" cy="233" rx="7" ry="9" fill="#F0F2F6"/>
<path d="M200.335 232.167C200.335 237.667 193.001 243.167 193.001 243.167C193.001 243.167 185.668 237.667 185.668 232.167C185.668 230.222 186.441 228.356 187.816 226.981C189.191 225.606 191.056 224.833 193.001 224.833C194.946 224.833 196.811 225.606 198.187 226.981C199.562 228.356 200.335 230.222 200.335 232.167V232.167Z" stroke="#015AAA" stroke-width="2" stroke-linecap="round" stroke-linejoin="round"/>
<path d="M193 234.917C194.519 234.917 195.75 233.685 195.75 232.167C195.75 230.648 194.519 229.417 193 229.417C191.481 229.417 190.25 230.648 190.25 232.167C190.25 233.685 191.481 234.917 193 234.917Z" stroke="#015AAA" stroke-width="2" stroke-linecap="round" stroke-linejoin="round"/>
<path d="M64.5 188.5C81.3333 178.166 121.6 159.9 148 169.5" stroke="#015AAA" stroke-linecap="round" stroke-linejoin="round" stroke-dasharray="4 4"/>
</svg>
