<svg width="44" height="44" viewBox="0 0 44 44" fill="none" xmlns="http://www.w3.org/2000/svg">
<path d="M1.4668 22.0001L1.11324 21.6466C0.917981 21.8418 0.917981 22.1584 1.11324 22.3537L1.4668 22.0001ZM22.0001 42.5335L21.6466 42.887C21.8418 43.0823 22.1584 43.0823 22.3537 42.887L22.0001 42.5335ZM42.5335 22.0001L42.887 22.3537C42.9808 22.2599 43.0335 22.1327 43.0335 22.0001H42.5335ZM22.0001 1.4668V0.966797C21.8675 0.966797 21.7403 1.01948 21.6466 1.11324L22.0001 1.4668ZM1.11324 22.3537L21.6466 42.887L22.3537 42.1799L1.82035 21.6466L1.11324 22.3537ZM22.3537 42.887L42.887 22.3537L42.1799 21.6466L21.6466 42.1799L22.3537 42.887ZM43.0335 22.0001V4.40013H42.0335V22.0001H43.0335ZM39.6001 0.966797H22.0001V1.9668H39.6001V0.966797ZM21.6466 1.11324L1.11324 21.6466L1.82035 22.3537L22.3537 1.82035L21.6466 1.11324ZM43.0335 4.40013C43.0335 2.50395 41.4963 0.966797 39.6001 0.966797V1.9668C40.944 1.9668 42.0335 3.05624 42.0335 4.40013H43.0335ZM30.8001 15.6335C29.4562 15.6335 28.3668 14.544 28.3668 13.2001H27.3668C27.3668 15.0963 28.904 16.6335 30.8001 16.6335V15.6335ZM33.2335 13.2001C33.2335 14.544 32.144 15.6335 30.8001 15.6335V16.6335C32.6963 16.6335 34.2335 15.0963 34.2335 13.2001H33.2335ZM30.8001 10.7668C32.144 10.7668 33.2335 11.8562 33.2335 13.2001H34.2335C34.2335 11.304 32.6963 9.7668 30.8001 9.7668V10.7668ZM30.8001 9.7668C28.904 9.7668 27.3668 11.304 27.3668 13.2001H28.3668C28.3668 11.8562 29.4562 10.7668 30.8001 10.7668V9.7668Z" fill="#0170D4"/>
</svg>
