<svg width="44" height="44" viewBox="0 0 44 44" fill="none" xmlns="http://www.w3.org/2000/svg">
<path d="M22.0001 22.0001H21.5001C21.5001 22.1327 21.5528 22.2599 21.6466 22.3537L22.0001 22.0001ZM22.0001 42.0335C10.936 42.0335 1.9668 33.0642 1.9668 22.0001H0.966797C0.966797 33.6165 10.3837 43.0335 22.0001 43.0335V42.0335ZM42.0335 22.0001C42.0335 33.0642 33.0642 42.0335 22.0001 42.0335V43.0335C33.6165 43.0335 43.0335 33.6165 43.0335 22.0001H42.0335ZM22.0001 1.9668C33.0642 1.9668 42.0335 10.936 42.0335 22.0001H43.0335C43.0335 10.3837 33.6165 0.966797 22.0001 0.966797V1.9668ZM22.0001 0.966797C10.3837 0.966797 0.966797 10.3837 0.966797 22.0001H1.9668C1.9668 10.936 10.936 1.9668 22.0001 1.9668V0.966797ZM21.5001 8.80013V22.0001H22.5001V8.80013H21.5001ZM21.6466 22.3537L30.4466 31.1537L31.1537 30.4466L22.3537 21.6466L21.6466 22.3537Z" fill="#0170D4"/>
</svg>
