<svg width="18" height="18" viewBox="0 0 18 18" fill="none" xmlns="http://www.w3.org/2000/svg">
<path d="M5.66268 0.599609H2.99961C1.67413 0.599609 0.599609 1.67413 0.599609 2.99961V5.39961C0.599609 12.027 5.97219 17.3996 12.5996 17.3996H14.9996C16.3251 17.3996 17.3996 16.3251 17.3996 14.9996V13.3412C17.3996 12.8867 17.1428 12.4712 16.7363 12.2679L13.8371 10.8184C13.184 10.4918 12.393 10.8194 12.1621 11.5122L11.8048 12.5842C11.5733 13.2785 10.861 13.6919 10.1433 13.5483C7.27076 12.9738 5.02538 10.7285 4.45087 7.85591C4.30733 7.1382 4.72068 6.42592 5.41504 6.19447L6.7454 5.75101C7.34026 5.55272 7.68217 4.92987 7.53009 4.32155L6.82685 1.50857C6.6933 0.974366 6.21332 0.599609 5.66268 0.599609Z" stroke="#ADB4C0"/>
</svg>
