<svg width="306" height="80" viewBox="0 0 306 80" fill="none" xmlns="http://www.w3.org/2000/svg">
<path fill-rule="evenodd" clip-rule="evenodd" d="M12.897 15C24.9814 15 37.0649 15 49.1476 15C49.1476 26.5436 49.1476 38.0823 49.1476 49.6161L36.8002 64.9951H0C0 53.4841 0 41.9714 0 30.457C4.30223 25.3088 8.61657 20.1727 12.897 15ZM11.1369 36.1077C11.1369 40.3097 11.2797 44.563 10.4324 48.704C9.99174 50.5429 8.66742 52.4403 6.71846 52.7963C6.71846 54.4059 6.71846 56.0155 6.71846 57.6251C8.55847 57.6251 10.4469 57.1691 11.9431 56.0521C13.5023 54.9181 14.4852 53.1426 14.9598 51.294C15.8168 47.97 15.9282 44.5118 16.0492 41.0975C17.7973 40.956 19.5549 41.0633 21.3102 41.0316C21.3102 46.4408 21.3102 51.8493 21.3102 57.2569C23.0655 57.2569 24.8183 57.2764 26.5688 57.1861C26.5688 50.1575 26.5688 43.129 26.5688 36.1004C21.4264 36.1004 16.2865 36.1004 11.1442 36.1004L11.1369 36.1077ZM67.078 15C79.1592 15 91.2403 15 103.321 15C103.321 26.5192 103.321 38.0384 103.321 49.5576C99.2225 54.7254 95.0583 59.842 90.9401 64.9927H54.1713C54.1713 53.4572 54.1496 41.9242 54.1883 30.3887C58.5123 25.2917 62.7661 20.1215 67.078 15ZM70.24 35.8516C67.5268 36.3827 65.1136 37.9284 63.4852 40.178C61.1464 43.4119 60.793 47.9041 62.3207 51.5623C62.9702 53.0936 63.9646 54.4516 65.2253 55.5289C66.4859 56.6061 67.9781 57.3731 69.5838 57.769C71.8952 58.3174 74.3106 58.2281 76.5759 57.5105C78.3868 56.9276 79.9315 55.7375 81.2001 54.3401L77.4959 50.6063C75.8568 52.7451 72.7603 53.7206 70.315 52.4354C66.8868 50.6648 66.2258 45.5507 68.6082 42.6583C69.1492 41.994 69.8418 41.4716 70.6268 41.1357C71.4119 40.7997 72.266 40.6603 73.1162 40.7292C74.8448 40.8121 76.4064 41.8218 77.4475 43.168L81.2631 39.322C78.6846 36.0784 74.1621 35.0468 70.24 35.8516ZM117.373 19.6093C118.69 18.0997 119.898 16.4633 121.271 15.0195C133.34 14.9805 145.412 15.0195 157.481 15C157.51 26.5184 157.481 38.0368 157.5 49.5552C153.368 54.7075 149.231 59.8558 145.09 65C132.839 65 120.589 65 108.34 65C108.34 53.4824 108.34 41.9657 108.34 30.4497C111.338 26.8232 114.369 23.2285 117.378 19.6142L117.373 19.6093ZM117.18 36.0467C117.18 43.259 117.18 50.4713 117.18 57.6836H122.748C122.748 55.9326 122.748 54.184 122.748 52.4329C124.116 52.4329 125.486 52.4329 126.864 52.4329C129.043 52.3354 131.263 51.5964 132.822 50.021C134.5 48.4406 135.306 46.0677 135.226 43.7826C135.277 41.5877 134.347 39.3537 132.621 37.988C130.878 36.5808 128.588 36.0589 126.392 36.0516C123.325 36.0516 120.258 36.0516 117.192 36.0516L117.18 36.0467ZM122.731 40.9975C122.767 43.1924 122.731 45.3873 122.753 47.5822C124.743 47.4627 127.041 48.0114 128.723 46.6359C130.379 45.3629 130.033 42.3949 128.157 41.5145C126.474 40.6877 124.537 41.0316 122.734 40.9975H122.731Z" fill="#E01D42"/>
<path fill-rule="evenodd" clip-rule="evenodd" d="M70.2397 35.8516C74.1618 35.0468 78.6747 36.0784 81.2531 39.3293L77.4375 43.1752C76.3965 41.8217 74.8349 40.8121 73.1062 40.7365C72.2572 40.6697 71.4048 40.8107 70.6215 41.1475C69.8382 41.4842 69.1474 42.0067 68.6079 42.6704C66.2256 45.5628 66.8865 50.677 70.3147 52.4475C72.76 53.7328 75.8566 52.7572 77.4956 50.6184L81.1926 54.3425C79.924 55.7448 78.3793 56.9349 76.5684 57.5129C74.3031 58.2304 71.8877 58.3197 69.5763 57.7714C67.9706 57.3755 66.4784 56.6085 65.2177 55.5313C63.9571 54.454 62.9627 53.096 62.3131 51.5647C60.7854 47.9065 61.1389 43.4142 63.4777 40.1804C65.1061 37.9308 67.5192 36.3851 70.2324 35.854L70.2397 35.8516ZM117.179 36.0467C120.246 36.0467 123.313 36.0467 126.379 36.0467C128.575 36.0467 130.866 36.5759 132.609 37.9831C134.335 39.3488 135.272 41.5852 135.214 43.7776C135.294 46.0628 134.488 48.4357 132.81 50.016C131.251 51.5915 129.021 52.3305 126.851 52.428C125.484 52.4451 124.113 52.428 122.736 52.428C122.736 54.1791 122.736 55.9277 122.736 57.6787H117.179C117.179 50.4648 117.179 43.2525 117.179 36.0418V36.0467ZM122.731 40.9974C122.767 43.1923 122.731 45.3872 122.753 47.5821C124.743 47.4626 127.04 48.0114 128.723 46.6359C130.379 45.3628 130.033 42.3948 128.156 41.5144C126.462 40.7023 124.525 41.0462 122.731 41.012V40.9974ZM11.1366 36.1076C16.279 36.1076 21.4189 36.1076 26.5613 36.1076C26.5613 43.1362 26.5613 50.1648 26.5613 57.1934C24.8108 57.2836 23.058 57.2714 21.3027 57.2641C21.3027 51.8565 21.3027 46.4481 21.3027 41.0389C19.5474 41.0706 17.7897 40.9633 16.0417 41.1047C15.9328 44.519 15.7996 47.9772 14.9522 51.3013C14.468 53.1499 13.4996 54.9253 11.9356 56.0594C10.4394 57.1763 8.54611 57.6299 6.71094 57.6324C6.71094 56.0228 6.71094 54.4132 6.71094 52.8036C8.64779 52.4475 9.98422 50.5501 10.4249 48.7113C11.2795 44.5629 11.1366 40.3097 11.1366 36.1076Z" fill="white"/>
</svg>
