<svg width="420" height="354" viewBox="0 0 420 354" fill="none" xmlns="http://www.w3.org/2000/svg">
<path d="M464.691 351.66C461.323 360.124 452.727 366.763 438.69 370.991C424.709 375.203 406.002 376.792 383.741 375.644C339.262 373.351 281.52 360.183 221.148 336.573C160.777 312.963 109.517 283.502 75.4363 255.073C58.3792 240.844 45.8044 227.021 38.4876 214.48C31.142 201.89 29.4325 191.22 32.8 182.756C36.1675 174.292 44.7634 167.652 58.8003 163.424C72.7822 159.213 91.4887 157.623 113.75 158.771C158.229 161.065 215.971 174.233 276.342 197.843C336.714 221.453 387.974 250.913 422.054 279.343C439.112 293.571 451.686 307.394 459.003 319.935C466.349 332.526 468.058 343.195 464.691 351.66Z" stroke="#015AAA" stroke-width="8"/>
<path d="M414.565 442.901C406.549 447.388 395.64 447.17 382.059 441.695C368.525 436.24 352.987 425.798 336.425 411.012C303.334 381.467 266.843 335.195 234.94 279.169C203.038 223.143 181.929 168.261 173.51 124.906C169.296 103.208 168.307 84.6234 170.587 70.3162C172.875 55.9584 178.323 46.5853 186.339 42.0985C194.355 37.6117 205.263 37.8298 218.845 43.3048C232.379 48.7604 247.917 59.2015 264.478 73.9882C297.57 103.533 334.061 149.805 365.964 205.831C397.866 261.857 418.975 316.739 427.394 360.094C431.607 381.792 432.597 400.377 430.317 414.684C428.029 429.042 422.581 438.415 414.565 442.901Z" stroke="#015AAA" stroke-width="8"/>
</svg>
