<svg width="22" height="22" viewBox="0 0 22 22" fill="none" xmlns="http://www.w3.org/2000/svg">
<path fill-rule="evenodd" clip-rule="evenodd" d="M22 11C22 17.0751 17.0751 22 11 22C4.92488 22 0 17.0751 0 11C0 4.92488 4.92488 0 11 0C17.0751 0 22 4.92488 22 11ZM7.3661 9.99235C6.26418 10.4735 5.132 10.9678 4.0967 11.5381C3.5561 11.9339 4.27459 12.2139 4.94867 12.4765C5.05583 12.5183 5.16184 12.5596 5.26153 12.6008C5.34449 12.6264 5.42882 12.6532 5.5143 12.6804C6.264 12.9193 7.0999 13.1856 7.82774 12.785C9.02335 12.0982 10.1516 11.3041 11.2791 10.5107C11.6485 10.2508 12.0177 9.99089 12.3893 9.73486C12.4067 9.72373 12.4263 9.71098 12.4478 9.6971C12.7643 9.4919 13.4761 9.0305 13.2128 9.6663C12.5902 10.3472 11.9233 10.9499 11.2528 11.556C10.8009 11.9644 10.3473 12.3743 9.90454 12.8106C9.51894 13.124 9.1185 13.754 9.55029 14.1928C10.5448 14.889 11.5549 15.5683 12.5644 16.2473C12.8929 16.4682 13.2214 16.6892 13.5492 16.9106C14.1048 17.3542 14.9731 16.9954 15.0952 16.3022C15.1495 15.9834 15.2041 15.6645 15.2586 15.3457C15.56 13.5835 15.8615 11.8207 16.1278 10.0529C16.164 9.77552 16.2051 9.49823 16.2461 9.2208C16.3456 8.54838 16.4453 7.87513 16.4764 7.19909C16.3962 6.52442 15.5782 6.67278 15.1229 6.82449C12.7831 7.71485 10.4665 8.67121 8.1592 9.64443C7.89782 9.76021 7.63285 9.87589 7.3661 9.99235Z" fill="#000B15"/>
</svg>
