<svg width="30" height="30" viewBox="0 0 30 30" fill="none" xmlns="http://www.w3.org/2000/svg">
<path d="M15 30C23.2843 30 30 23.2843 30 15C30 6.71575 23.2843 0 15 0C6.71575 0 0 6.71575 0 15C0 23.2843 6.71575 30 15 30Z" fill="url(#paint0_linear_425_5210)"/>
<path d="M5.587 15.7337C7.34049 14.7679 9.29786 13.9617 11.1267 13.1515C14.2731 11.8244 17.432 10.5202 20.6227 9.30611C21.2436 9.09923 22.359 8.89692 22.4684 9.81692C22.4085 11.1192 22.1621 12.4138 21.9931 13.7084C21.5642 16.5554 21.0684 19.3927 20.585 22.2303C20.4184 23.1755 19.2344 23.6648 18.4767 23.0599C16.656 21.83 14.8212 20.6122 13.0237 19.3538C12.4349 18.7555 12.9809 17.8963 13.5068 17.469C15.0064 15.9912 16.5968 14.7355 18.0181 13.1813C18.4014 12.2555 17.2687 13.0357 16.8951 13.2748C14.8421 14.6895 12.8393 16.1907 10.6748 17.434C9.56918 18.0427 8.28055 17.5225 7.17543 17.1829C6.18454 16.7727 4.73253 16.3594 5.5869 15.7338L5.587 15.7337Z" fill="white"/>
<defs>
<linearGradient id="paint0_linear_425_5210" x1="11.2517" y1="1.251" x2="3.75175" y2="18.75" gradientUnits="userSpaceOnUse">
<stop stop-color="#37AEE2"/>
<stop offset="1" stop-color="#1E96C8"/>
</linearGradient>
</defs>
</svg>
