<svg width="22" height="22" viewBox="0 0 22 22" fill="none" xmlns="http://www.w3.org/2000/svg">
<path fill-rule="evenodd" clip-rule="evenodd" d="M11 22C4.92487 22 0 17.0751 0 11C0 4.92487 4.92487 0 11 0C17.0751 0 22 4.92487 22 11C22 17.0751 17.0751 22 11 22ZM11.3626 17.1199C14.9689 17.1184 17.902 14.1846 17.9035 10.579C17.9042 8.83132 17.2244 7.18796 15.9895 5.95165C14.7546 4.71527 13.1123 4.03409 11.3625 4.03333C7.75721 4.03333 4.82294 6.96744 4.82151 10.5739C4.82102 11.7267 5.12221 12.8519 5.69461 13.8439L4.76667 17.2333L8.23412 16.3237C9.18949 16.8449 10.2652 17.1195 11.3599 17.1199H11.3626Z" fill="#000B15"/>
<path fill-rule="evenodd" clip-rule="evenodd" d="M8.39468 15.1396L6.33705 15.6793L6.88626 13.6731L6.757 13.4674C6.21279 12.6019 5.92536 11.6014 5.92578 10.5742C5.92697 7.5767 8.36583 5.13806 11.3646 5.13806C12.8167 5.13856 14.1817 5.70477 15.2082 6.7324C16.2346 7.76002 16.7996 9.12591 16.799 10.5786C16.7978 13.5763 14.359 16.0152 11.3625 16.0152H11.3603C10.3847 16.0148 9.42791 15.7527 8.5932 15.2574L8.39468 15.1396ZM14.6578 12.1344C14.6169 12.0662 14.508 12.0253 14.3445 11.9435C14.1811 11.8617 13.3776 11.4663 13.2277 11.4117C13.078 11.3572 12.969 11.33 12.86 11.4935C12.7511 11.6571 12.4379 12.0253 12.3425 12.1344C12.2472 12.2434 12.1518 12.2571 11.9885 12.1753C11.825 12.0935 11.2984 11.9209 10.6741 11.3641C10.1883 10.9307 9.86027 10.3955 9.76494 10.2319C9.6696 10.0683 9.75477 9.97985 9.83659 9.89835C9.91012 9.8251 10 9.70741 10.0818 9.61201C10.1635 9.5166 10.1907 9.44838 10.2452 9.33938C10.2997 9.23026 10.2724 9.13485 10.2316 9.05304C10.1907 8.97123 9.86385 8.16676 9.72766 7.83951C9.59498 7.52082 9.46025 7.56399 9.35993 7.55896C9.26471 7.55417 9.15564 7.55317 9.04669 7.55317C8.93774 7.55317 8.76067 7.59407 8.61087 7.7577C8.46106 7.92132 8.03885 8.31673 8.03885 9.12113C8.03885 9.9256 8.62448 10.7028 8.7062 10.8118C8.78791 10.9209 9.85865 12.5717 11.4982 13.2796C11.8881 13.448 12.1925 13.5486 12.4299 13.6239C12.8214 13.7483 13.1777 13.7308 13.4593 13.6887C13.7733 13.6418 14.4262 13.2933 14.5625 12.9116C14.6986 12.5298 14.6986 12.2025 14.6578 12.1344Z" fill="#000B15"/>
</svg>
